<svg width="41" height="40" viewBox="0 0 41 40" fill="none" xmlns="http://www.w3.org/2000/svg">
<rect x="0.116211" y="0.320312" width="40.4429" height="39.3786" rx="3" fill="#752A86"/>
<g clip-path="url(#clip0_405_3)">
<path d="M5.46875 28.4829H18.4949C18.7537 28.4829 18.9636 28.273 18.9636 28.0142C18.9636 27.7554 18.7537 27.5454 18.4949 27.5454H13.9539V19.9981C13.9539 19.7393 13.7439 19.5293 13.4851 19.5293C13.2261 19.5293 13.0164 19.7393 13.0164 19.9981V27.5454H5.9375V7.44069H7.47266C7.54541 7.44069 7.61719 7.4236 7.68237 7.39113L10.6885 5.8882C10.9202 5.77223 11.0139 5.49074 10.8982 5.25929C10.7825 5.0276 10.501 4.93385 10.2693 5.04957L7.36206 6.50319H5.46875C5.20996 6.50319 5 6.71315 5 6.97194V28.0142C5 28.273 5.20996 28.4829 5.46875 28.4829Z" fill="white"/>
<path d="M28.0139 18.9636C28.2727 18.9636 28.4827 18.7537 28.4827 18.4949V10.98C28.4827 10.7212 28.2727 10.5112 28.0139 10.5112C27.7549 10.5112 27.5452 10.7212 27.5452 10.98V14.0183H23.0039C22.7449 14.0183 22.5352 14.228 22.5352 14.4871C22.5352 14.7458 22.7449 14.9558 23.0039 14.9558H27.5452V18.4949C27.5452 18.7537 27.7549 18.9636 28.0139 18.9636Z" fill="white"/>
<path d="M35.9392 24.4043C35.8137 24.178 35.5286 24.0964 35.302 24.2219C35.0757 24.3477 34.9939 24.6328 35.1196 24.8594C35.7363 25.9712 36.0625 27.2353 36.0625 28.5151C36.0625 32.6768 32.6768 36.0625 28.5151 36.0625C24.3535 36.0625 20.9678 32.6768 20.9678 28.5151C20.9678 24.3535 24.3535 20.9678 28.5151 20.9678C30.6084 20.9678 32.5544 21.8049 33.9949 23.3252C34.1729 23.5132 34.4695 23.521 34.6575 23.343C34.8452 23.165 34.8533 22.8684 34.6753 22.6804C33.0562 20.9714 30.8684 20.0303 28.5151 20.0303C23.8364 20.0303 20.0303 23.8367 20.0303 28.5151C20.0303 33.1936 23.8364 37 28.5151 37C33.1936 37 37 33.1936 37 28.5151C37 27.0764 36.6333 25.655 35.9392 24.4043Z" fill="white"/>
<path d="M22.3679 12.1902C22.2063 11.988 21.9114 11.9551 21.7092 12.1169L19.3325 14.0183H13.9858C13.9751 14.0183 13.9644 14.019 13.9536 14.0198V7.44067H27.5454V8.97583C27.5454 9.23486 27.7551 9.44458 28.0142 9.44458C28.2729 9.44458 28.4829 9.23486 28.4829 8.97583V6.97192C28.4829 6.71313 28.2729 6.50317 28.0142 6.50317H11.481C11.2219 6.50317 11.0122 6.71313 11.0122 6.97192C11.0122 7.23071 11.2219 7.44067 11.481 7.44067H13.0161V16.491C13.0161 16.5974 13.0525 16.7007 13.1189 16.7837L15.123 19.2888C15.2156 19.4045 15.3518 19.4648 15.4893 19.4648C15.592 19.4648 15.6953 19.4312 15.7817 19.3621C15.9839 19.2004 16.0166 18.9053 15.855 18.7031L13.9536 16.3264V14.9541C13.9644 14.9548 13.9751 14.9556 13.9858 14.9556H19.4968C19.6033 14.9556 19.7065 14.9194 19.7896 14.853L22.2947 12.8489C22.4971 12.6873 22.5298 12.3923 22.3679 12.1902Z" fill="white"/>
<path d="M29.5168 31.99C29.7759 31.99 29.9856 31.78 29.9856 31.5212V28.2646C29.9856 27.3154 29.2136 26.5435 28.2644 26.5435C27.771 26.5435 27.3259 26.7522 27.0117 27.0857C26.6978 26.7522 26.2524 26.5435 25.7593 26.5435C25.4495 26.5435 25.1589 26.626 24.9075 26.7698C24.8254 26.6343 24.6768 26.5435 24.5068 26.5435C24.2478 26.5435 24.0381 26.7532 24.0381 27.0122V31.5212C24.0381 31.78 24.2478 31.99 24.5068 31.99C24.7656 31.99 24.9756 31.78 24.9756 31.5212V28.2646C24.9756 27.8325 25.3271 27.481 25.7593 27.481C26.1914 27.481 26.543 27.8325 26.543 28.2646V31.5212C26.543 31.78 26.7529 31.99 27.0117 31.99C27.2708 31.99 27.4805 31.78 27.4805 31.5212V28.2646C27.4805 27.8325 27.832 27.481 28.2644 27.481C28.6965 27.481 29.0481 27.8325 29.0481 28.2646V31.5212C29.0481 31.78 29.2581 31.99 29.5168 31.99Z" fill="white"/>
<path d="M30.6886 27.6826C30.5546 27.8169 30.5143 28.0183 30.5871 28.1936C30.6596 28.3687 30.8305 28.4829 31.0202 28.4829H33.0241C33.2829 28.4829 33.4928 28.2729 33.4928 28.0142C33.4928 27.7554 33.2829 27.5454 33.0241 27.5454H32.1518L32.9015 26.7957C33.2868 26.4104 33.3966 25.8584 33.1881 25.3552C32.9796 24.8521 32.5119 24.5393 31.9672 24.5393C31.1864 24.5393 30.5514 25.1746 30.5514 25.9551V26.01C30.5514 26.269 30.7611 26.4788 31.0202 26.4788C31.279 26.4788 31.4889 26.269 31.4889 26.01V25.9551C31.4889 25.6914 31.7035 25.4768 31.9672 25.4768C32.2052 25.4768 32.299 25.6584 32.3219 25.7139C32.3449 25.7695 32.4071 25.9641 32.2387 26.1326L30.6886 27.6826Z" fill="white"/>
<path d="M18.4949 30.5514H7.01685L7.23193 30.4081C7.44727 30.2646 7.50537 29.9735 7.36182 29.7582C7.21826 29.5426 6.92725 29.4845 6.71191 29.6281L5.20874 30.63C5.07837 30.7169 5 30.8634 5 31.0202C5 31.1769 5.07837 31.3232 5.20874 31.4101L6.71167 32.412C6.79175 32.4655 6.88208 32.4909 6.97144 32.4909C7.1228 32.4909 7.27148 32.4176 7.36182 32.2821C7.50537 32.0668 7.44727 31.7758 7.23169 31.6322L7.01685 31.4889H18.4949C18.7539 31.4889 18.9636 31.279 18.9636 31.0202C18.9636 30.7611 18.7539 30.5514 18.4949 30.5514Z" fill="white"/>
<path d="M29.758 8.86499C29.9736 9.00854 30.2646 8.95044 30.4081 8.73486L30.5514 8.52002V18.9961C30.5514 19.2549 30.7611 19.4648 31.0202 19.4648C31.279 19.4648 31.4889 19.2549 31.4889 18.9961V8.52002L31.632 8.73486C31.7223 8.87036 31.871 8.9436 32.0224 8.9436C32.112 8.9436 32.2021 8.91821 32.2821 8.86499C32.4975 8.72144 32.5556 8.43018 32.412 8.21484L31.4101 6.71191C31.3232 6.58154 31.1769 6.50317 31.0202 6.50317C30.8632 6.50317 30.717 6.58154 30.63 6.71191L29.6281 8.21484C29.4845 8.43018 29.5426 8.72144 29.758 8.86499Z" fill="white"/>
</g>
<defs>
<clipPath id="clip0_405_3">
<rect width="32" height="32" fill="white" transform="translate(5 5)"/>
</clipPath>
</defs>
</svg>
