<svg width="210" height="97" viewBox="0 0 210 97" fill="none" xmlns="http://www.w3.org/2000/svg">
<path fill-rule="evenodd" clip-rule="evenodd" d="M28.9999 55.6401C28.9943 52.6026 31.4522 50.1356 34.4897 50.1299L173.489 49.8721C176.527 49.8665 178.994 52.3243 179 55.3619C179.005 58.3995 176.547 60.8665 173.51 60.8721L34.5101 61.1299C31.4726 61.1356 29.0056 58.6777 28.9999 55.6401Z" fill="#DBAAE8" fill-opacity="0.15"/>
<g filter="url(#filter0_dd_410_7)">
<path d="M19 24C19 18.4772 23.4772 14 29 14H180C185.523 14 190 18.4772 190 24V68C190 73.5228 185.523 78 180 78H29C23.4772 78 19 73.5228 19 68V24Z" fill="white"/>
</g>
<path d="M31.58 37V30.328H29.312V29.152H35.24V30.328H32.972V37H31.58ZM37.9833 37.144C37.4953 37.144 37.0393 37.024 36.6153 36.784C36.1913 36.536 35.8473 36.184 35.5833 35.728C35.3193 35.264 35.1873 34.708 35.1873 34.06C35.1873 33.404 35.3193 32.848 35.5833 32.392C35.8473 31.928 36.1913 31.576 36.6153 31.336C37.0393 31.088 37.4953 30.964 37.9833 30.964C38.4793 30.964 38.9393 31.088 39.3633 31.336C39.7873 31.576 40.1313 31.928 40.3953 32.392C40.6593 32.848 40.7913 33.404 40.7913 34.06C40.7913 34.708 40.6593 35.264 40.3953 35.728C40.1313 36.184 39.7873 36.536 39.3633 36.784C38.9393 37.024 38.4793 37.144 37.9833 37.144ZM37.9833 36.016C38.4153 36.016 38.7553 35.836 39.0033 35.476C39.2513 35.116 39.3753 34.644 39.3753 34.06C39.3753 33.468 39.2513 32.992 39.0033 32.632C38.7553 32.272 38.4153 32.092 37.9833 32.092C37.5513 32.092 37.2113 32.272 36.9633 32.632C36.7233 32.992 36.6033 33.468 36.6033 34.06C36.6033 34.644 36.7233 35.116 36.9633 35.476C37.2113 35.836 37.5513 36.016 37.9833 36.016ZM43.9637 37.144C43.2837 37.144 42.7997 36.948 42.5117 36.556C42.2317 36.156 42.0917 35.64 42.0917 35.008V32.2H41.2517V31.168L42.1637 31.108L42.3317 29.5H43.4837V31.108H44.9837V32.2H43.4837V35.008C43.4837 35.696 43.7597 36.04 44.3117 36.04C44.4157 36.04 44.5237 36.028 44.6357 36.004C44.7477 35.972 44.8437 35.94 44.9237 35.908L45.1637 36.928C45.0037 36.984 44.8197 37.032 44.6117 37.072C44.4117 37.12 44.1957 37.144 43.9637 37.144ZM47.3938 37.144C46.8818 37.144 46.4618 36.984 46.1338 36.664C45.8138 36.344 45.6538 35.928 45.6538 35.416C45.6538 34.784 45.9298 34.296 46.4818 33.952C47.0338 33.6 47.9138 33.36 49.1218 33.232C49.1138 32.92 49.0298 32.652 48.8698 32.428C48.7178 32.196 48.4418 32.08 48.0418 32.08C47.7538 32.08 47.4698 32.136 47.1898 32.248C46.9178 32.36 46.6498 32.496 46.3858 32.656L45.8818 31.732C46.2098 31.524 46.5778 31.344 46.9858 31.192C47.4018 31.04 47.8418 30.964 48.3058 30.964C49.0418 30.964 49.5898 31.184 49.9498 31.624C50.3178 32.056 50.5018 32.684 50.5018 33.508V37H49.3618L49.2658 36.352H49.2178C48.9538 36.576 48.6698 36.764 48.3658 36.916C48.0698 37.068 47.7458 37.144 47.3938 37.144ZM47.8378 36.064C48.0778 36.064 48.2938 36.008 48.4858 35.896C48.6858 35.776 48.8978 35.616 49.1218 35.416V34.096C48.3218 34.2 47.7658 34.356 47.4538 34.564C47.1418 34.764 46.9858 35.012 46.9858 35.308C46.9858 35.572 47.0658 35.764 47.2258 35.884C47.3858 36.004 47.5898 36.064 47.8378 36.064ZM53.4973 37.144C53.0093 37.144 52.6613 36.996 52.4533 36.7C52.2533 36.404 52.1533 36 52.1533 35.488V28.528H53.5333V35.56C53.5333 35.728 53.5653 35.848 53.6293 35.92C53.6933 35.984 53.7613 36.016 53.8333 36.016C53.8653 36.016 53.8933 36.016 53.9173 36.016C53.9493 36.008 53.9933 36 54.0493 35.992L54.2293 37.024C54.1493 37.056 54.0453 37.084 53.9173 37.108C53.7973 37.132 53.6573 37.144 53.4973 37.144Z" fill="black"/>
<path fill-rule="evenodd" clip-rule="evenodd" d="M28.9999 55.6401C28.9943 52.6026 31.4522 50.1356 34.4897 50.1299L173.489 49.8721C176.527 49.8665 178.994 52.3243 179 55.3619C179.005 58.3995 176.547 60.8665 173.51 60.8721L34.5101 61.1299C31.4726 61.1356 29.0056 58.6777 28.9999 55.6401Z" fill="#DBAAE8" fill-opacity="0.15"/>
<path fill-rule="evenodd" clip-rule="evenodd" d="M29.0102 55.6501C29.0046 52.6126 31.4624 50.1456 34.5 50.1399L124.5 49.973C127.537 49.9674 130.004 52.4252 130.01 55.4628C130.016 58.5004 127.558 60.9674 124.52 60.973L34.5204 61.1399C31.4828 61.1456 29.0158 58.6877 29.0102 55.6501Z" fill="#752A86"/>
<path d="M133.736 35.096H136.136V32.876C136.136 32.668 136.144 32.42 136.16 32.132C136.176 31.844 136.188 31.6 136.196 31.4H136.148C136.052 31.584 135.952 31.764 135.848 31.94C135.744 32.116 135.636 32.296 135.524 32.48L133.736 35.096ZM136.136 38V35.888H132.692V35.24L135.968 30.344H137.072V35.096H138.116V35.888H137.072V38H136.136ZM141.261 38.144C140.653 38.144 140.149 38.036 139.749 37.82C139.349 37.604 139.017 37.364 138.753 37.1L139.233 36.452C139.465 36.676 139.733 36.88 140.037 37.064C140.341 37.24 140.717 37.328 141.165 37.328C141.637 37.328 142.033 37.172 142.353 36.86C142.681 36.54 142.845 36.112 142.845 35.576C142.845 35.048 142.697 34.636 142.401 34.34C142.105 34.044 141.709 33.896 141.213 33.896C140.949 33.896 140.721 33.936 140.529 34.016C140.345 34.096 140.137 34.212 139.905 34.364L139.377 34.028L139.629 30.344H143.457V31.196H140.493L140.289 33.464C140.473 33.368 140.657 33.292 140.841 33.236C141.025 33.18 141.233 33.152 141.465 33.152C141.905 33.152 142.301 33.24 142.653 33.416C143.013 33.584 143.301 33.844 143.517 34.196C143.733 34.548 143.841 35 143.841 35.552C143.841 36.104 143.717 36.576 143.469 36.968C143.229 37.352 142.913 37.644 142.521 37.844C142.129 38.044 141.709 38.144 141.261 38.144ZM144.898 38V37.412C145.666 36.644 146.318 35.972 146.854 35.396C147.39 34.812 147.798 34.288 148.078 33.824C148.358 33.352 148.498 32.912 148.498 32.504C148.498 32.064 148.378 31.704 148.138 31.424C147.898 31.144 147.534 31.004 147.046 31.004C146.726 31.004 146.43 31.096 146.158 31.28C145.886 31.456 145.638 31.672 145.414 31.928L144.85 31.364C145.17 31.012 145.51 30.732 145.87 30.524C146.238 30.308 146.67 30.2 147.166 30.2C147.878 30.2 148.438 30.408 148.846 30.824C149.254 31.232 149.458 31.776 149.458 32.456C149.458 32.936 149.322 33.424 149.05 33.92C148.786 34.408 148.418 34.924 147.946 35.468C147.482 36.004 146.946 36.588 146.338 37.22C146.546 37.204 146.762 37.188 146.986 37.172C147.21 37.156 147.422 37.148 147.622 37.148H149.842V38H144.898ZM156.661 38.144C156.125 38.144 155.641 38.036 155.209 37.82C154.785 37.604 154.449 37.248 154.201 36.752C153.953 36.256 153.829 35.588 153.829 34.748V30.128H154.825V34.772C154.825 35.404 154.905 35.904 155.065 36.272C155.233 36.632 155.453 36.888 155.725 37.04C156.005 37.192 156.317 37.268 156.661 37.268C157.013 37.268 157.329 37.192 157.609 37.04C157.889 36.888 158.109 36.632 158.269 36.272C158.437 35.904 158.521 35.404 158.521 34.772V30.128H159.481V34.748C159.481 35.588 159.357 36.256 159.109 36.752C158.861 37.248 158.525 37.604 158.101 37.82C157.677 38.036 157.197 38.144 156.661 38.144ZM161.504 38V32.168H162.32L162.404 33.008H162.44C162.72 32.728 163.016 32.496 163.328 32.312C163.64 32.12 163.996 32.024 164.396 32.024C165.012 32.024 165.46 32.22 165.74 32.612C166.028 32.996 166.172 33.56 166.172 34.304V38H165.188V34.436C165.188 33.892 165.1 33.496 164.924 33.248C164.748 33 164.468 32.876 164.084 32.876C163.788 32.876 163.52 32.952 163.28 33.104C163.048 33.256 162.784 33.48 162.488 33.776V38H161.504ZM168.066 38V32.168H169.05V38H168.066ZM168.57 30.968C168.378 30.968 168.218 30.912 168.09 30.8C167.97 30.68 167.91 30.52 167.91 30.32C167.91 30.128 167.97 29.972 168.09 29.852C168.218 29.732 168.378 29.672 168.57 29.672C168.762 29.672 168.918 29.732 169.038 29.852C169.166 29.972 169.23 30.128 169.23 30.32C169.23 30.52 169.166 30.68 169.038 30.8C168.918 30.912 168.762 30.968 168.57 30.968ZM172.855 38.144C172.231 38.144 171.795 37.964 171.547 37.604C171.307 37.244 171.187 36.776 171.187 36.2V32.972H170.323V32.228L171.235 32.168L171.355 30.536H172.183V32.168H173.755V32.972H172.183V36.212C172.183 36.572 172.247 36.852 172.375 37.052C172.511 37.244 172.747 37.34 173.083 37.34C173.187 37.34 173.299 37.324 173.419 37.292C173.539 37.252 173.647 37.216 173.743 37.184L173.935 37.928C173.775 37.984 173.599 38.032 173.407 38.072C173.223 38.12 173.039 38.144 172.855 38.144ZM176.481 38.144C176.065 38.144 175.669 38.068 175.293 37.916C174.917 37.756 174.589 37.564 174.309 37.34L174.801 36.68C175.057 36.88 175.321 37.048 175.593 37.184C175.865 37.312 176.173 37.376 176.517 37.376C176.901 37.376 177.189 37.288 177.381 37.112C177.573 36.928 177.669 36.712 177.669 36.464C177.669 36.264 177.601 36.096 177.465 35.96C177.337 35.824 177.169 35.712 176.961 35.624C176.761 35.528 176.553 35.44 176.337 35.36C176.065 35.256 175.797 35.14 175.533 35.012C175.269 34.876 175.053 34.704 174.885 34.496C174.717 34.28 174.633 34.008 174.633 33.68C174.633 33.208 174.809 32.816 175.161 32.504C175.521 32.184 176.017 32.024 176.649 32.024C177.009 32.024 177.345 32.088 177.657 32.216C177.969 32.344 178.237 32.5 178.461 32.684L177.981 33.308C177.781 33.156 177.573 33.032 177.357 32.936C177.141 32.84 176.905 32.792 176.649 32.792C176.281 32.792 176.009 32.876 175.833 33.044C175.665 33.212 175.581 33.408 175.581 33.632C175.581 33.816 175.641 33.968 175.761 34.088C175.881 34.2 176.037 34.3 176.229 34.388C176.421 34.468 176.625 34.552 176.841 34.64C177.121 34.744 177.397 34.864 177.669 35C177.941 35.128 178.165 35.304 178.341 35.528C178.525 35.744 178.617 36.036 178.617 36.404C178.617 36.716 178.533 37.004 178.365 37.268C178.205 37.532 177.965 37.744 177.645 37.904C177.333 38.064 176.945 38.144 176.481 38.144Z" fill="#6B7380"/>
<path d="M90.3107 55.5753C90.1667 55.5756 90.0148 55.6212 89.8549 55.7121C89.6951 55.7978 89.5434 55.9474 89.3998 56.161C89.4486 56.6142 89.5585 56.942 89.7296 57.1444C89.9006 57.3467 90.1088 57.4477 90.3541 57.4472C90.5675 57.4468 90.746 57.3638 90.8897 57.1982C91.0387 57.0273 91.1129 56.7871 91.1123 56.4778C91.1118 56.1791 91.0394 55.9553 90.8951 55.8062C90.7561 55.6518 90.5613 55.5748 90.3107 55.5753ZM90.3715 58.1512C90.0408 58.1518 89.734 58.0644 89.451 57.8889C89.168 57.7134 88.9408 57.4418 88.7695 57.0742C88.6034 56.7065 88.5199 56.2373 88.5188 55.6666C88.5176 55.0053 88.61 54.4718 88.7959 54.0661C88.9871 53.6551 89.2346 53.3533 89.5382 53.1607C89.8418 52.9682 90.167 52.8716 90.5137 52.8709C90.823 52.8703 91.0898 52.9258 91.314 53.0374C91.5382 53.149 91.7251 53.2847 91.8747 53.4444L91.3798 54.0053C91.2889 53.8935 91.1687 53.803 91.0193 53.734C90.8751 53.6596 90.7257 53.6225 90.5711 53.6228C90.3577 53.6232 90.1632 53.6822 89.9874 53.7999C89.8116 53.9175 89.668 54.1151 89.5565 54.3927C89.4503 54.6649 89.3897 55.0357 89.3745 55.505C89.5235 55.3181 89.6993 55.1711 89.9017 55.064C90.1042 54.957 90.2961 54.9033 90.4774 54.903C90.9201 54.9022 91.2777 55.0322 91.5502 55.293C91.828 55.5485 91.9674 55.9429 91.9683 56.4762C91.969 56.8122 91.8948 57.1057 91.746 57.3566C91.6024 57.6076 91.4108 57.8026 91.1711 57.9417C90.9313 58.0808 90.6648 58.1506 90.3715 58.1512ZM93.6168 58.0492C93.6477 57.4464 93.7107 56.9077 93.8058 56.4328C93.9009 55.9526 94.0468 55.4964 94.2433 55.064C94.4398 54.6316 94.7003 54.1885 95.0248 53.7345L92.6168 53.739L92.6154 52.963L96.0314 52.9567L96.0324 53.5167C95.7344 53.8852 95.4924 54.2377 95.3064 54.574C95.1257 54.9104 94.9823 55.252 94.8763 55.5988C94.7756 55.9403 94.7016 56.3111 94.6544 56.7112C94.6071 57.106 94.5732 57.5514 94.5528 58.0474L93.6168 58.0492ZM97.8586 56.0253C97.4906 56.026 97.189 55.8825 96.9538 55.595C96.724 55.3021 96.6085 54.8916 96.6076 54.3636C96.6066 53.8409 96.7205 53.4354 96.9493 53.147C97.1834 52.8585 97.4845 52.714 97.8525 52.7133C98.2205 52.7126 98.5194 52.8561 98.7493 53.1436C98.9845 53.4312 99.1026 53.8363 99.1036 54.359C99.1045 54.887 98.988 55.2979 98.7538 55.5916C98.525 55.8801 98.2266 56.0246 97.8586 56.0253ZM97.8577 55.4893C98.0283 55.489 98.1668 55.3981 98.2731 55.2165C98.3848 55.035 98.4403 54.7495 98.4396 54.3602C98.4388 53.9655 98.3823 53.683 98.27 53.5125C98.163 53.3367 98.0242 53.249 97.8535 53.2493C97.6882 53.2496 97.5497 53.3379 97.438 53.5141C97.3263 53.6849 97.2708 53.9677 97.2716 54.3624C97.2723 54.7517 97.3288 55.0369 97.4411 55.2181C97.5535 55.3992 97.6923 55.4896 97.8577 55.4893ZM98.0306 58.137L100.876 52.7077L101.436 52.7066L98.5986 58.1359L98.0306 58.137ZM101.615 58.1303C101.247 58.131 100.945 57.9876 100.71 57.7C100.48 57.4071 100.364 56.9966 100.363 56.4686C100.363 55.946 100.476 55.5404 100.705 55.252C100.939 54.9636 101.24 54.819 101.608 54.8183C101.976 54.8177 102.275 54.9611 102.505 55.2487C102.74 55.5362 102.858 55.9414 102.859 56.464C102.86 56.992 102.744 57.4029 102.51 57.6967C102.281 57.9851 101.983 58.1296 101.615 58.1303ZM101.614 57.5943C101.784 57.594 101.923 57.5031 102.029 57.3216C102.141 57.14 102.196 56.8546 102.195 56.4652C102.195 56.0706 102.138 55.788 102.026 55.6176C101.919 55.4418 101.78 55.354 101.609 55.3543C101.444 55.3546 101.306 55.4429 101.194 55.6191C101.082 55.79 101.027 56.0727 101.027 56.4674C101.028 56.8567 101.085 57.142 101.197 57.3231C101.309 57.5042 101.448 57.5946 101.614 57.5943ZM106.895 58.1205C106.543 58.1212 106.201 58.0552 105.87 57.9224C105.545 57.7897 105.256 57.6009 105.005 57.356L105.548 56.723C105.735 56.8987 105.949 57.0423 106.189 57.1538C106.429 57.2601 106.669 57.313 106.909 57.3125C107.208 57.312 107.434 57.2502 107.589 57.1272C107.743 57.0043 107.82 56.8415 107.82 56.6388C107.82 56.4202 107.742 56.263 107.587 56.1672C107.438 56.0715 107.245 55.9732 107.011 55.8723L106.29 55.5617C106.119 55.4873 105.951 55.3916 105.785 55.2746C105.625 55.1576 105.492 55.0085 105.385 54.8273C105.283 54.6462 105.232 54.4276 105.231 54.1716C105.231 53.8943 105.305 53.6461 105.454 53.4272C105.608 53.2029 105.816 53.0265 106.077 52.898C106.343 52.7642 106.647 52.697 106.989 52.6964C107.293 52.6958 107.586 52.7566 107.869 52.8787C108.152 52.9955 108.395 53.1551 108.598 53.3574L108.127 53.9502C107.961 53.8119 107.785 53.7029 107.598 53.6232C107.417 53.5436 107.214 53.5039 106.99 53.5044C106.745 53.5048 106.545 53.5612 106.39 53.6735C106.241 53.7804 106.167 53.9299 106.167 54.1219C106.168 54.2552 106.205 54.3671 106.28 54.4577C106.36 54.5429 106.464 54.6173 106.592 54.6811C106.72 54.7395 106.857 54.7979 107.001 54.8563L107.713 55.151C108.023 55.2838 108.276 55.4593 108.474 55.6776C108.672 55.8906 108.771 56.1864 108.772 56.5651C108.772 56.8477 108.698 57.1065 108.549 57.3415C108.4 57.5764 108.185 57.7661 107.902 57.9107C107.625 58.0498 107.289 58.1198 106.895 58.1205ZM111.254 58.1124C110.929 58.1131 110.625 58.0336 110.342 57.8741C110.059 57.7093 109.829 57.4751 109.652 57.1714C109.476 56.8624 109.387 56.4919 109.386 56.0599C109.385 55.6226 109.473 55.2517 109.648 54.9474C109.824 54.6378 110.052 54.4027 110.335 54.2421C110.617 54.0763 110.921 53.9931 111.246 53.9925C111.577 53.9918 111.884 54.0739 112.167 54.2387C112.45 54.3982 112.68 54.6325 112.856 54.9415C113.033 55.2451 113.121 55.6156 113.122 56.053C113.123 56.485 113.036 56.8558 112.86 57.1655C112.685 57.4698 112.456 57.7049 112.174 57.8707C111.891 58.0313 111.585 58.1118 111.254 58.1124ZM111.253 57.3605C111.541 57.3599 111.767 57.2395 111.932 56.9992C112.097 56.7589 112.179 56.4441 112.178 56.0547C112.177 55.6601 112.094 55.3429 111.928 55.1032C111.763 54.8635 111.536 54.7439 111.248 54.7445C110.96 54.745 110.733 54.8654 110.568 55.1057C110.409 55.346 110.329 55.6635 110.33 56.0582C110.331 56.4475 110.412 56.762 110.572 57.0017C110.738 57.2414 110.965 57.361 111.253 57.3605ZM114.933 58.1056C114.607 58.1062 114.375 58.008 114.236 57.8109C114.102 57.6138 114.035 57.3446 114.035 57.0033L114.026 52.3633L114.946 52.3616L114.955 57.0496C114.955 57.1616 114.976 57.2415 115.019 57.2895C115.062 57.3321 115.107 57.3533 115.155 57.3532C115.177 57.3532 115.195 57.3531 115.211 57.3531C115.233 57.3477 115.262 57.3423 115.299 57.3369L115.421 58.0247C115.367 58.0462 115.298 58.0649 115.213 58.0811C115.133 58.0973 115.039 58.1054 114.933 58.1056ZM117.585 58.1007C117.094 58.1016 116.702 57.921 116.408 57.5589C116.114 57.1968 115.966 56.693 115.965 56.0477C115.964 55.621 116.041 55.2529 116.195 54.9433C116.354 54.6337 116.562 54.3959 116.817 54.2301C117.073 54.0643 117.342 53.9812 117.625 53.9806C117.849 53.9802 118.038 54.0199 118.193 54.0996C118.353 54.1739 118.508 54.2777 118.658 54.4107L118.625 53.7788L118.622 52.3548L119.542 52.3531L119.552 58.0011L118.792 58.0025L118.728 57.5786L118.696 57.5786C118.552 57.7229 118.384 57.8459 118.192 57.9476C118 58.0493 117.798 58.1003 117.585 58.1007ZM117.807 57.3403C118.1 57.3397 118.375 57.1926 118.63 56.8988L118.627 55.0668C118.493 54.9444 118.36 54.8593 118.226 54.8115C118.093 54.7638 117.96 54.74 117.826 54.7403C117.576 54.7407 117.36 54.8558 117.179 55.0855C117.003 55.3098 116.916 55.6273 116.917 56.0379C116.917 56.4593 116.995 56.7818 117.15 57.0055C117.306 57.2292 117.524 57.3408 117.807 57.3403Z" fill="white"/>
<defs>
<filter id="filter0_dd_410_7" x="0" y="0" width="210" height="97" filterUnits="userSpaceOnUse" color-interpolation-filters="sRGB">
<feFlood flood-opacity="0" result="BackgroundImageFix"/>
<feColorMatrix in="SourceAlpha" type="matrix" values="0 0 0 0 0 0 0 0 0 0 0 0 0 0 0 0 0 0 127 0" result="hardAlpha"/>
<feOffset dx="-9" dy="-4"/>
<feGaussianBlur stdDeviation="5"/>
<feComposite in2="hardAlpha" operator="out"/>
<feColorMatrix type="matrix" values="0 0 0 0 0 0 0 0 0 0 0 0 0 0 0 0 0 0 0.05 0"/>
<feBlend mode="normal" in2="BackgroundImageFix" result="effect1_dropShadow_410_7"/>
<feColorMatrix in="SourceAlpha" type="matrix" values="0 0 0 0 0 0 0 0 0 0 0 0 0 0 0 0 0 0 127 0" result="hardAlpha"/>
<feOffset dx="5" dy="4"/>
<feGaussianBlur stdDeviation="7.5"/>
<feComposite in2="hardAlpha" operator="out"/>
<feColorMatrix type="matrix" values="0 0 0 0 0 0 0 0 0 0 0 0 0 0 0 0 0 0 0.05 0"/>
<feBlend mode="normal" in2="effect1_dropShadow_410_7" result="effect2_dropShadow_410_7"/>
<feBlend mode="normal" in="SourceGraphic" in2="effect2_dropShadow_410_7" result="shape"/>
</filter>
</defs>
</svg>
