<svg width="223" height="129" viewBox="0 0 223 129" fill="none" xmlns="http://www.w3.org/2000/svg">
<g filter="url(#filter0_dd_217_5885)">
<path d="M29 25C29 19.4772 33.4772 15 39 15L202 15C207.523 15 212 19.4772 212 25V90.5C212 96.0229 207.523 100.5 202 100.5H39C33.4772 100.5 29 96.0229 29 90.5L29 25Z" fill="white"/>
</g>
<path d="M49.868 30.14H46.22L45.548 32H44.396L47.42 23.684H48.68L51.692 32H50.54L49.868 30.14ZM49.556 29.252L48.044 25.028L46.532 29.252H49.556ZM55.4579 30.992L57.4979 25.424H58.6619L56.0819 32H54.8099L52.2299 25.424H53.4059L55.4579 30.992ZM65.7365 28.46C65.7365 28.668 65.7245 28.888 65.7005 29.12H60.4445C60.4845 29.768 60.7045 30.276 61.1045 30.644C61.5125 31.004 62.0045 31.184 62.5805 31.184C63.0525 31.184 63.4445 31.076 63.7565 30.86C64.0765 30.636 64.3005 30.34 64.4285 29.972H65.6045C65.4285 30.604 65.0765 31.12 64.5485 31.52C64.0205 31.912 63.3645 32.108 62.5805 32.108C61.9565 32.108 61.3965 31.968 60.9005 31.688C60.4125 31.408 60.0285 31.012 59.7485 30.5C59.4685 29.98 59.3285 29.38 59.3285 28.7C59.3285 28.02 59.4645 27.424 59.7365 26.912C60.0085 26.4 60.3885 26.008 60.8765 25.736C61.3725 25.456 61.9405 25.316 62.5805 25.316C63.2045 25.316 63.7565 25.452 64.2365 25.724C64.7165 25.996 65.0845 26.372 65.3405 26.852C65.6045 27.324 65.7365 27.86 65.7365 28.46ZM64.6085 28.232C64.6085 27.816 64.5165 27.46 64.3325 27.164C64.1485 26.86 63.8965 26.632 63.5765 26.48C63.2645 26.32 62.9165 26.24 62.5325 26.24C61.9805 26.24 61.5085 26.416 61.1165 26.768C60.7325 27.12 60.5125 27.608 60.4565 28.232H64.6085ZM68.2699 26.492C68.4619 26.116 68.7339 25.824 69.0859 25.616C69.4459 25.408 69.8819 25.304 70.3939 25.304V26.432H70.1059C68.8819 26.432 68.2699 27.096 68.2699 28.424V32H67.1779V25.424H68.2699V26.492ZM71.2465 28.688C71.2465 28.016 71.3825 27.428 71.6545 26.924C71.9265 26.412 72.2985 26.016 72.7705 25.736C73.2505 25.456 73.7825 25.316 74.3665 25.316C74.9425 25.316 75.4425 25.44 75.8665 25.688C76.2905 25.936 76.6065 26.248 76.8145 26.624V25.424H77.9185V32H76.8145V30.776C76.5985 31.16 76.2745 31.48 75.8425 31.736C75.4185 31.984 74.9225 32.108 74.3545 32.108C73.7705 32.108 73.2425 31.964 72.7705 31.676C72.2985 31.388 71.9265 30.984 71.6545 30.464C71.3825 29.944 71.2465 29.352 71.2465 28.688ZM76.8145 28.7C76.8145 28.204 76.7145 27.772 76.5145 27.404C76.3145 27.036 76.0425 26.756 75.6985 26.564C75.3625 26.364 74.9905 26.264 74.5825 26.264C74.1745 26.264 73.8025 26.36 73.4665 26.552C73.1305 26.744 72.8625 27.024 72.6625 27.392C72.4625 27.76 72.3625 28.192 72.3625 28.688C72.3625 29.192 72.4625 29.632 72.6625 30.008C72.8625 30.376 73.1305 30.66 73.4665 30.86C73.8025 31.052 74.1745 31.148 74.5825 31.148C74.9905 31.148 75.3625 31.052 75.6985 30.86C76.0425 30.66 76.3145 30.376 76.5145 30.008C76.7145 29.632 76.8145 29.196 76.8145 28.7ZM82.4758 25.316C83.0438 25.316 83.5398 25.44 83.9638 25.688C84.3958 25.936 84.7158 26.248 84.9238 26.624V25.424H86.0278V32.144C86.0278 32.744 85.8998 33.276 85.6438 33.74C85.3878 34.212 85.0198 34.58 84.5398 34.844C84.0678 35.108 83.5158 35.24 82.8838 35.24C82.0198 35.24 81.2998 35.036 80.7238 34.628C80.1478 34.22 79.8078 33.664 79.7038 32.96H80.7838C80.9038 33.36 81.1518 33.68 81.5278 33.92C81.9038 34.168 82.3558 34.292 82.8838 34.292C83.4838 34.292 83.9718 34.104 84.3478 33.728C84.7318 33.352 84.9238 32.824 84.9238 32.144V30.764C84.7078 31.148 84.3878 31.468 83.9638 31.724C83.5398 31.98 83.0438 32.108 82.4758 32.108C81.8918 32.108 81.3598 31.964 80.8798 31.676C80.4078 31.388 80.0358 30.984 79.7638 30.464C79.4918 29.944 79.3558 29.352 79.3558 28.688C79.3558 28.016 79.4918 27.428 79.7638 26.924C80.0358 26.412 80.4078 26.016 80.8798 25.736C81.3598 25.456 81.8918 25.316 82.4758 25.316ZM84.9238 28.7C84.9238 28.204 84.8238 27.772 84.6238 27.404C84.4238 27.036 84.1518 26.756 83.8078 26.564C83.4718 26.364 83.0998 26.264 82.6918 26.264C82.2838 26.264 81.9118 26.36 81.5758 26.552C81.2398 26.744 80.9718 27.024 80.7718 27.392C80.5718 27.76 80.4718 28.192 80.4718 28.688C80.4718 29.192 80.5718 29.632 80.7718 30.008C80.9718 30.376 81.2398 30.66 81.5758 30.86C81.9118 31.052 82.2838 31.148 82.6918 31.148C83.0998 31.148 83.4718 31.052 83.8078 30.86C84.1518 30.66 84.4238 30.376 84.6238 30.008C84.8238 29.632 84.9238 29.196 84.9238 28.7ZM93.8732 28.46C93.8732 28.668 93.8612 28.888 93.8372 29.12H88.5812C88.6212 29.768 88.8412 30.276 89.2412 30.644C89.6492 31.004 90.1412 31.184 90.7172 31.184C91.1892 31.184 91.5812 31.076 91.8932 30.86C92.2132 30.636 92.4372 30.34 92.5652 29.972H93.7412C93.5652 30.604 93.2132 31.12 92.6852 31.52C92.1572 31.912 91.5012 32.108 90.7172 32.108C90.0932 32.108 89.5332 31.968 89.0372 31.688C88.5492 31.408 88.1652 31.012 87.8852 30.5C87.6052 29.98 87.4652 29.38 87.4652 28.7C87.4652 28.02 87.6012 27.424 87.8732 26.912C88.1452 26.4 88.5252 26.008 89.0132 25.736C89.5092 25.456 90.0772 25.316 90.7172 25.316C91.3412 25.316 91.8932 25.452 92.3732 25.724C92.8532 25.996 93.2212 26.372 93.4772 26.852C93.7412 27.324 93.8732 27.86 93.8732 28.46ZM92.7452 28.232C92.7452 27.816 92.6532 27.46 92.4692 27.164C92.2852 26.86 92.0332 26.632 91.7132 26.48C91.4012 26.32 91.0532 26.24 90.6692 26.24C90.1172 26.24 89.6452 26.416 89.2532 26.768C88.8692 27.12 88.6492 27.608 88.5932 28.232H92.7452ZM104.106 26.084C104.106 26.78 103.866 27.36 103.386 27.824C102.914 28.28 102.19 28.508 101.214 28.508H99.6058V32H98.5138V23.636H101.214C102.158 23.636 102.874 23.864 103.362 24.32C103.858 24.776 104.106 25.364 104.106 26.084ZM101.214 27.608C101.822 27.608 102.27 27.476 102.558 27.212C102.846 26.948 102.99 26.572 102.99 26.084C102.99 25.052 102.398 24.536 101.214 24.536H99.6058V27.608H101.214ZM108.115 32.084C107.563 32.084 107.067 31.988 106.627 31.796C106.195 31.596 105.855 31.324 105.607 30.98C105.359 30.628 105.231 30.224 105.223 29.768H106.387C106.427 30.16 106.587 30.492 106.867 30.764C107.155 31.028 107.571 31.16 108.115 31.16C108.635 31.16 109.043 31.032 109.339 30.776C109.643 30.512 109.795 30.176 109.795 29.768C109.795 29.448 109.707 29.188 109.531 28.988C109.355 28.788 109.135 28.636 108.871 28.532C108.607 28.428 108.251 28.316 107.803 28.196C107.251 28.052 106.807 27.908 106.471 27.764C106.143 27.62 105.859 27.396 105.619 27.092C105.387 26.78 105.271 26.364 105.271 25.844C105.271 25.388 105.387 24.984 105.619 24.632C105.851 24.28 106.175 24.008 106.591 23.816C107.015 23.624 107.499 23.528 108.043 23.528C108.827 23.528 109.467 23.724 109.963 24.116C110.467 24.508 110.751 25.028 110.815 25.676H109.615C109.575 25.356 109.407 25.076 109.111 24.836C108.815 24.588 108.423 24.464 107.935 24.464C107.479 24.464 107.107 24.584 106.819 24.824C106.531 25.056 106.387 25.384 106.387 25.808C106.387 26.112 106.471 26.36 106.639 26.552C106.815 26.744 107.027 26.892 107.275 26.996C107.531 27.092 107.887 27.204 108.343 27.332C108.895 27.484 109.339 27.636 109.675 27.788C110.011 27.932 110.299 28.16 110.539 28.472C110.779 28.776 110.899 29.192 110.899 29.72C110.899 30.128 110.791 30.512 110.575 30.872C110.359 31.232 110.039 31.524 109.615 31.748C109.191 31.972 108.691 32.084 108.115 32.084ZM117.234 23.636V24.524H113.598V27.344H116.55V28.232H113.598V32H112.506V23.636H117.234Z" fill="#6B7380"/>
<rect x="44.0015" y="90.5071" width="150.999" height="0.405634" fill="#F3F3F6"/>
<rect x="45" y="41" width="49" height="0.999993" transform="rotate(90 45 41)" fill="#F3F3F6"/>
<rect x="75" y="45" width="40" height="0.999995" transform="rotate(90 75 45)" fill="#F3F3F6"/>
<rect x="104.901" y="48" width="36.9127" height="0.834245" transform="rotate(90 104.901 48)" fill="#F3F3F6"/>
<rect x="134.935" y="48" width="36.9127" height="0.834245" transform="rotate(90 134.935 48)" fill="#F3F3F6"/>
<rect x="164.967" y="48" width="36.9127" height="0.834245" transform="rotate(90 164.967 48)" fill="#F3F3F6"/>
<rect x="195" y="48" width="36.9127" height="0.834245" transform="rotate(90 195 48)" fill="#F3F3F6"/>
<path d="M205 55V80C205 82.7614 202.761 85 200 85H58L83.384 73.5714L121.649 66.4286L154.99 59.2857L187.951 61.4286L205 55Z" fill="white"/>
<path d="M195 56L178.287 62.3158L145.24 60.1627L111.814 67.3397L73.4496 74.5167L47 91" stroke="#752A86" stroke-width="3" stroke-linecap="round"/>
<circle cx="45.0291" cy="93.0291" r="3.02913" fill="white" stroke="#752A86" stroke-width="2"/>
<circle cx="73.0291" cy="74.0291" r="3.02913" fill="white" stroke="#752A86" stroke-width="2"/>
<circle cx="146.029" cy="60.0291" r="3.02913" fill="white" stroke="#752A86" stroke-width="2"/>
<circle cx="178.029" cy="62.0291" r="3.02913" fill="white" stroke="#752A86" stroke-width="2"/>
<circle cx="194.029" cy="56.0291" r="3.02913" fill="white" stroke="#752A86" stroke-width="2"/>
<path d="M178.36 24.428H174.34V26.816C174.508 26.592 174.756 26.404 175.084 26.252C175.42 26.1 175.776 26.024 176.152 26.024C176.824 26.024 177.368 26.168 177.784 26.456C178.208 26.744 178.508 27.108 178.684 27.548C178.868 27.988 178.96 28.452 178.96 28.94C178.96 29.532 178.844 30.06 178.612 30.524C178.388 30.98 178.048 31.34 177.592 31.604C177.144 31.868 176.592 32 175.936 32C175.064 32 174.364 31.784 173.836 31.352C173.308 30.92 172.992 30.348 172.888 29.636H174.22C174.308 30.012 174.504 30.312 174.808 30.536C175.112 30.752 175.492 30.86 175.948 30.86C176.516 30.86 176.94 30.688 177.22 30.344C177.508 30 177.652 29.544 177.652 28.976C177.652 28.4 177.508 27.96 177.22 27.656C176.932 27.344 176.508 27.188 175.948 27.188C175.556 27.188 175.224 27.288 174.952 27.488C174.688 27.68 174.496 27.944 174.376 28.28H173.08V23.228H178.36V24.428ZM181.116 32.084C180.868 32.084 180.66 32 180.492 31.832C180.324 31.664 180.24 31.456 180.24 31.208C180.24 30.96 180.324 30.752 180.492 30.584C180.66 30.416 180.868 30.332 181.116 30.332C181.356 30.332 181.56 30.416 181.728 30.584C181.896 30.752 181.98 30.96 181.98 31.208C181.98 31.456 181.896 31.664 181.728 31.832C181.56 32 181.356 32.084 181.116 32.084ZM188.823 24.308L185.487 32H184.107L187.479 24.452H183.039V23.288H188.823V24.308ZM189.777 25.364C189.777 24.78 189.945 24.324 190.281 23.996C190.625 23.66 191.065 23.492 191.601 23.492C192.137 23.492 192.573 23.66 192.909 23.996C193.253 24.324 193.425 24.78 193.425 25.364C193.425 25.948 193.253 26.408 192.909 26.744C192.573 27.08 192.137 27.248 191.601 27.248C191.065 27.248 190.625 27.08 190.281 26.744C189.945 26.408 189.777 25.948 189.777 25.364ZM197.097 23.648L192.309 32H190.965L195.753 23.648H197.097ZM191.601 24.32C191.097 24.32 190.845 24.668 190.845 25.364C190.845 26.068 191.097 26.42 191.601 26.42C191.841 26.42 192.025 26.336 192.153 26.168C192.289 25.992 192.357 25.724 192.357 25.364C192.357 24.668 192.105 24.32 191.601 24.32ZM194.661 30.272C194.661 29.688 194.829 29.232 195.165 28.904C195.509 28.568 195.949 28.4 196.485 28.4C197.013 28.4 197.445 28.568 197.781 28.904C198.125 29.232 198.297 29.688 198.297 30.272C198.297 30.856 198.125 31.316 197.781 31.652C197.445 31.988 197.013 32.156 196.485 32.156C195.949 32.156 195.509 31.988 195.165 31.652C194.829 31.316 194.661 30.856 194.661 30.272ZM196.473 29.228C195.969 29.228 195.717 29.576 195.717 30.272C195.717 30.968 195.969 31.316 196.473 31.316C196.977 31.316 197.229 30.968 197.229 30.272C197.229 29.576 196.977 29.228 196.473 29.228Z" fill="#007F46"/>
<path d="M162.382 24.9396V32.3008H163.918V24.9396L167.215 28.2362L168.301 27.1504L163.15 22L158 27.1504L159.086 28.2362L162.382 24.9396Z" fill="#007F46"/>
<defs>
<filter id="filter0_dd_217_5885" x="0" y="0" width="223" height="128.5" filterUnits="userSpaceOnUse" color-interpolation-filters="sRGB">
<feFlood flood-opacity="0" result="BackgroundImageFix"/>
<feColorMatrix in="SourceAlpha" type="matrix" values="0 0 0 0 0 0 0 0 0 0 0 0 0 0 0 0 0 0 127 0" result="hardAlpha"/>
<feOffset dx="-9" dy="8"/>
<feGaussianBlur stdDeviation="10"/>
<feColorMatrix type="matrix" values="0 0 0 0 0 0 0 0 0 0 0 0 0 0 0 0 0 0 0.05 0"/>
<feBlend mode="normal" in2="BackgroundImageFix" result="effect1_dropShadow_217_5885"/>
<feColorMatrix in="SourceAlpha" type="matrix" values="0 0 0 0 0 0 0 0 0 0 0 0 0 0 0 0 0 0 127 0" result="hardAlpha"/>
<feOffset dy="-5"/>
<feGaussianBlur stdDeviation="5"/>
<feComposite in2="hardAlpha" operator="out"/>
<feColorMatrix type="matrix" values="0 0 0 0 0 0 0 0 0 0 0 0 0 0 0 0 0 0 0.05 0"/>
<feBlend mode="normal" in2="effect1_dropShadow_217_5885" result="effect2_dropShadow_217_5885"/>
<feBlend mode="normal" in="SourceGraphic" in2="effect2_dropShadow_217_5885" result="shape"/>
</filter>
</defs>
</svg>
