<svg width="215" height="113" viewBox="0 0 215 113" fill="none" xmlns="http://www.w3.org/2000/svg">
<g filter="url(#filter0_dd_217_5908)">
<path d="M29 36C29 30.4772 33.4772 26 39 26H187C192.523 26 197 30.4772 197 36V89C197 94.5229 192.523 99 187 99H39C33.4772 99 29 94.5229 29 89V36Z" fill="white"/>
</g>
<path d="M101.548 79.815V78.165C101.064 78.11 100.552 77.978 100.013 77.769C99.485 77.549 99.0285 77.263 98.6435 76.911L99.6995 75.2775C100.118 75.5855 100.514 75.822 100.888 75.987C101.273 76.152 101.663 76.2345 102.059 76.2345C102.95 76.2345 103.396 75.855 103.396 75.096C103.396 74.81 103.291 74.568 103.082 74.37C102.873 74.161 102.604 73.9685 102.274 73.7925C101.944 73.6165 101.592 73.435 101.218 73.248C100.844 73.061 100.492 72.8465 100.162 72.6045C99.8315 72.3625 99.562 72.071 99.353 71.73C99.144 71.378 99.0395 70.9545 99.0395 70.4595C99.0395 69.6455 99.265 68.9745 99.716 68.4465C100.167 67.9075 100.778 67.561 101.548 67.407V65.7075H103.148V67.374C103.676 67.451 104.138 67.6105 104.534 67.8525C104.93 68.0945 105.288 68.386 105.607 68.727L104.386 70.113C104.089 69.838 103.803 69.6345 103.528 69.5025C103.253 69.3595 102.939 69.288 102.587 69.288C102.191 69.288 101.889 69.3705 101.68 69.5355C101.471 69.7005 101.366 69.97 101.366 70.344C101.366 70.608 101.471 70.8335 101.68 71.0205C101.889 71.1965 102.158 71.367 102.488 71.532C102.818 71.697 103.17 71.8675 103.544 72.0435C103.918 72.2195 104.27 72.434 104.6 72.687C104.93 72.94 105.2 73.248 105.409 73.611C105.618 73.963 105.722 74.403 105.722 74.931C105.722 75.723 105.502 76.405 105.062 76.977C104.633 77.538 103.995 77.912 103.148 78.099V79.815H101.548ZM107.872 78V76.0365H110.149V69.981H108.186V68.4795C108.758 68.3695 109.242 68.2375 109.638 68.0835C110.034 67.9295 110.419 67.7425 110.793 67.5225H112.575V76.0365H114.538V78H107.872ZM116.689 81.201L116.194 79.914C116.81 79.694 117.277 79.4025 117.596 79.0395C117.915 78.6875 118.069 78.308 118.058 77.901C118.036 77.901 118.014 77.901 117.992 77.901C117.97 77.901 117.948 77.901 117.926 77.901C117.541 77.901 117.2 77.7855 116.903 77.5545C116.606 77.3125 116.458 76.9715 116.458 76.5315C116.458 76.1135 116.606 75.778 116.903 75.525C117.2 75.272 117.558 75.1455 117.976 75.1455C118.526 75.1455 118.944 75.349 119.23 75.756C119.516 76.163 119.659 76.724 119.659 77.439C119.659 78.341 119.406 79.122 118.9 79.782C118.394 80.442 117.657 80.915 116.689 81.201ZM124.391 78.198C123.544 78.198 122.818 78.0605 122.213 77.7855C121.619 77.5105 121.129 77.153 120.744 76.713L121.866 75.1785C122.185 75.4865 122.537 75.7395 122.922 75.9375C123.307 76.1355 123.72 76.2345 124.16 76.2345C124.677 76.2345 125.089 76.13 125.397 75.921C125.705 75.701 125.859 75.393 125.859 74.997C125.859 74.689 125.782 74.425 125.628 74.205C125.474 73.974 125.194 73.798 124.787 73.677C124.38 73.556 123.797 73.4955 123.038 73.4955V71.7795C123.984 71.7795 124.633 71.653 124.985 71.4C125.337 71.136 125.513 70.795 125.513 70.377C125.513 70.014 125.403 69.7335 125.183 69.5355C124.963 69.3265 124.644 69.222 124.226 69.222C123.852 69.222 123.511 69.3045 123.203 69.4695C122.906 69.6345 122.592 69.86 122.262 70.146L121.041 68.661C121.525 68.243 122.037 67.9185 122.576 67.6875C123.115 67.4455 123.703 67.3245 124.341 67.3245C125.419 67.3245 126.288 67.5775 126.948 68.0835C127.619 68.5785 127.955 69.2825 127.955 70.1955C127.955 70.7345 127.801 71.1965 127.493 71.5815C127.196 71.9665 126.767 72.28 126.206 72.522V72.588C126.811 72.764 127.306 73.0665 127.691 73.4955C128.087 73.9135 128.285 74.4635 128.285 75.1455C128.285 75.7945 128.103 76.35 127.74 76.812C127.388 77.263 126.915 77.6095 126.321 77.8515C125.738 78.0825 125.095 78.198 124.391 78.198ZM131.871 70.839C131.871 71.389 132.003 71.7795 132.267 72.0105C132.531 72.2415 132.861 72.357 133.257 72.357C133.532 72.357 133.807 72.28 134.082 72.126C134.368 71.961 134.615 71.6915 134.824 71.3175C134.714 70.4925 134.505 69.926 134.197 69.618C133.9 69.299 133.565 69.1395 133.191 69.1395C132.839 69.1395 132.531 69.277 132.267 69.552C132.003 69.816 131.871 70.245 131.871 70.839ZM132.877 78.198C132.184 78.198 131.579 78.0715 131.062 77.8185C130.556 77.5655 130.138 77.274 129.808 76.944L131.095 75.492C131.271 75.69 131.508 75.866 131.805 76.02C132.102 76.163 132.404 76.2345 132.712 76.2345C133.108 76.2345 133.46 76.1355 133.768 75.9375C134.087 75.7285 134.346 75.3875 134.544 74.9145C134.742 74.4305 134.852 73.7815 134.874 72.9675C134.599 73.3085 134.258 73.578 133.851 73.776C133.455 73.974 133.097 74.073 132.778 74.073C132.184 74.073 131.651 73.9575 131.178 73.7265C130.716 73.4955 130.347 73.1435 130.072 72.6705C129.797 72.1865 129.66 71.576 129.66 70.839C129.66 70.113 129.819 69.486 130.138 68.958C130.457 68.43 130.881 68.0285 131.409 67.7535C131.937 67.4675 132.514 67.3245 133.141 67.3245C133.823 67.3245 134.467 67.506 135.072 67.869C135.677 68.221 136.166 68.7765 136.54 69.5355C136.925 70.2945 137.118 71.29 137.118 72.522C137.118 73.82 136.914 74.8925 136.507 75.7395C136.111 76.5755 135.589 77.197 134.94 77.604C134.302 78 133.614 78.198 132.877 78.198ZM138.426 78V76.614C139.317 75.767 140.104 75.0025 140.786 74.3205C141.479 73.6275 142.018 72.995 142.403 72.423C142.788 71.84 142.98 71.301 142.98 70.806C142.98 70.289 142.843 69.8985 142.568 69.6345C142.304 69.3595 141.946 69.222 141.495 69.222C141.121 69.222 140.78 69.332 140.472 69.552C140.175 69.761 139.895 70.0085 139.631 70.2945L138.311 68.991C138.828 68.441 139.356 68.0285 139.895 67.7535C140.434 67.4675 141.077 67.3245 141.825 67.3245C142.518 67.3245 143.123 67.462 143.64 67.737C144.157 68.012 144.559 68.4025 144.845 68.9085C145.142 69.4035 145.29 69.9865 145.29 70.6575C145.29 71.2405 145.125 71.84 144.795 72.456C144.476 73.061 144.064 73.6715 143.558 74.2875C143.052 74.8925 142.513 75.492 141.941 76.086C142.205 76.053 142.502 76.0255 142.832 76.0035C143.162 75.9705 143.448 75.954 143.69 75.954H145.802V78H138.426ZM147.787 81.201L147.292 79.914C147.908 79.694 148.376 79.4025 148.695 79.0395C149.014 78.6875 149.168 78.308 149.157 77.901C149.135 77.901 149.113 77.901 149.091 77.901C149.069 77.901 149.047 77.901 149.025 77.901C148.64 77.901 148.299 77.7855 148.002 77.5545C147.705 77.3125 147.556 76.9715 147.556 76.5315C147.556 76.1135 147.705 75.778 148.002 75.525C148.299 75.272 148.656 75.1455 149.074 75.1455C149.624 75.1455 150.042 75.349 150.328 75.756C150.614 76.163 150.757 76.724 150.757 77.439C150.757 78.341 150.504 79.122 149.998 79.782C149.492 80.442 148.755 80.915 147.787 81.201ZM155.836 78.198C154.714 78.198 153.806 77.7305 153.113 76.7955C152.431 75.8605 152.09 74.502 152.09 72.72C152.09 70.938 152.431 69.596 153.113 68.694C153.806 67.781 154.714 67.3245 155.836 67.3245C156.958 67.3245 157.86 67.781 158.542 68.694C159.235 69.596 159.581 70.938 159.581 72.72C159.581 74.502 159.235 75.8605 158.542 76.7955C157.86 77.7305 156.958 78.198 155.836 78.198ZM155.836 76.317C156.111 76.317 156.358 76.218 156.578 76.02C156.798 75.811 156.969 75.448 157.09 74.931C157.222 74.414 157.288 73.677 157.288 72.72C157.288 71.763 157.222 71.0315 157.09 70.5255C156.969 70.0195 156.798 69.673 156.578 69.486C156.358 69.299 156.111 69.2055 155.836 69.2055C155.572 69.2055 155.33 69.299 155.11 69.486C154.89 69.673 154.714 70.0195 154.582 70.5255C154.45 71.0315 154.384 71.763 154.384 72.72C154.384 73.677 154.45 74.414 154.582 74.931C154.714 75.448 154.89 75.811 155.11 76.02C155.33 76.218 155.572 76.317 155.836 76.317ZM164.553 78.198C163.431 78.198 162.524 77.7305 161.831 76.7955C161.149 75.8605 160.808 74.502 160.808 72.72C160.808 70.938 161.149 69.596 161.831 68.694C162.524 67.781 163.431 67.3245 164.553 67.3245C165.675 67.3245 166.577 67.781 167.259 68.694C167.952 69.596 168.299 70.938 168.299 72.72C168.299 74.502 167.952 75.8605 167.259 76.7955C166.577 77.7305 165.675 78.198 164.553 78.198ZM164.553 76.317C164.828 76.317 165.076 76.218 165.296 76.02C165.516 75.811 165.686 75.448 165.807 74.931C165.939 74.414 166.005 73.677 166.005 72.72C166.005 71.763 165.939 71.0315 165.807 70.5255C165.686 70.0195 165.516 69.673 165.296 69.486C165.076 69.299 164.828 69.2055 164.553 69.2055C164.289 69.2055 164.047 69.299 163.827 69.486C163.607 69.673 163.431 70.0195 163.299 70.5255C163.167 71.0315 163.101 71.763 163.101 72.72C163.101 73.677 163.167 74.414 163.299 74.931C163.431 75.448 163.607 75.811 163.827 76.02C164.047 76.218 164.289 76.317 164.553 76.317ZM173.271 78.198C172.149 78.198 171.241 77.7305 170.548 76.7955C169.866 75.8605 169.525 74.502 169.525 72.72C169.525 70.938 169.866 69.596 170.548 68.694C171.241 67.781 172.149 67.3245 173.271 67.3245C174.393 67.3245 175.295 67.781 175.977 68.694C176.67 69.596 177.016 70.938 177.016 72.72C177.016 74.502 176.67 75.8605 175.977 76.7955C175.295 77.7305 174.393 78.198 173.271 78.198ZM173.271 76.317C173.546 76.317 173.793 76.218 174.013 76.02C174.233 75.811 174.404 75.448 174.525 74.931C174.657 74.414 174.723 73.677 174.723 72.72C174.723 71.763 174.657 71.0315 174.525 70.5255C174.404 70.0195 174.233 69.673 174.013 69.486C173.793 69.299 173.546 69.2055 173.271 69.2055C173.007 69.2055 172.765 69.299 172.545 69.486C172.325 69.673 172.149 70.0195 172.017 70.5255C171.885 71.0315 171.819 71.763 171.819 72.72C171.819 73.677 171.885 74.414 172.017 74.931C172.149 75.448 172.325 75.811 172.545 76.02C172.765 76.218 173.007 76.317 173.271 76.317Z" fill="black"/>
<path d="M99.106 55V54.048H101.15V47.468H99.526V46.726C99.9367 46.6513 100.291 46.5627 100.59 46.46C100.898 46.348 101.173 46.2173 101.416 46.068H102.298V54.048H104.146V55H99.106ZM106.219 55V45.816H108.949C109.574 45.816 110.12 45.8907 110.587 46.04C111.063 46.1893 111.432 46.4273 111.693 46.754C111.964 47.0807 112.099 47.5147 112.099 48.056C112.099 48.5133 111.982 48.9287 111.749 49.302C111.525 49.666 111.194 49.918 110.755 50.058V50.114C111.306 50.2167 111.754 50.45 112.099 50.814C112.454 51.178 112.631 51.6773 112.631 52.312C112.631 52.9093 112.482 53.4087 112.183 53.81C111.894 54.2113 111.488 54.51 110.965 54.706C110.442 54.902 109.836 55 109.145 55H106.219ZM107.381 49.722H108.739C109.523 49.722 110.088 49.5867 110.433 49.316C110.778 49.0453 110.951 48.6767 110.951 48.21C110.951 47.678 110.769 47.3 110.405 47.076C110.05 46.852 109.514 46.74 108.795 46.74H107.381V49.722ZM107.381 54.076H108.977C109.77 54.076 110.386 53.9313 110.825 53.642C111.264 53.3433 111.483 52.886 111.483 52.27C111.483 51.7007 111.264 51.2853 110.825 51.024C110.396 50.7533 109.78 50.618 108.977 50.618H107.381V54.076ZM114.449 55V45.816H117.319C117.945 45.816 118.5 45.9 118.985 46.068C119.471 46.2267 119.849 46.4973 120.119 46.88C120.399 47.2533 120.539 47.7573 120.539 48.392C120.539 49.1013 120.353 49.6753 119.979 50.114C119.606 50.5433 119.102 50.8373 118.467 50.996L120.805 55H119.489L117.277 51.122H115.611V55H114.449ZM115.611 50.17H117.151C117.87 50.17 118.421 50.0253 118.803 49.736C119.186 49.4373 119.377 48.9893 119.377 48.392C119.377 47.7853 119.186 47.3607 118.803 47.118C118.421 46.8753 117.87 46.754 117.151 46.754H115.611V50.17ZM125.713 51.374C125.48 51.374 125.279 51.2947 125.111 51.136C124.952 50.968 124.873 50.758 124.873 50.506C124.873 50.2353 124.952 50.0207 125.111 49.862C125.279 49.694 125.48 49.61 125.713 49.61C125.937 49.61 126.128 49.694 126.287 49.862C126.455 50.0207 126.539 50.2353 126.539 50.506C126.539 50.758 126.455 50.968 126.287 51.136C126.128 51.2947 125.937 51.374 125.713 51.374ZM131.708 51.612H134.508V49.022C134.508 48.7793 134.517 48.49 134.536 48.154C134.555 47.818 134.569 47.5333 134.578 47.3H134.522C134.41 47.5147 134.293 47.7247 134.172 47.93C134.051 48.1353 133.925 48.3453 133.794 48.56L131.708 51.612ZM134.508 55V52.536H130.49V51.78L134.312 46.068H135.6V51.612H136.818V52.536H135.6V55H134.508ZM140.865 50.408C140.576 50.408 140.263 50.5013 139.927 50.688C139.591 50.8747 139.283 51.1733 139.003 51.584C139.078 52.452 139.278 53.1147 139.605 53.572C139.941 54.0293 140.394 54.258 140.963 54.258C141.402 54.258 141.77 54.0807 142.069 53.726C142.368 53.362 142.517 52.886 142.517 52.298C142.517 51.7193 142.377 51.262 142.097 50.926C141.826 50.5807 141.416 50.408 140.865 50.408ZM140.963 55.168C140.384 55.168 139.862 55.0093 139.395 54.692C138.928 54.3747 138.56 53.8987 138.289 53.264C138.018 52.62 137.883 51.822 137.883 50.87C137.883 49.6753 138.042 48.714 138.359 47.986C138.686 47.258 139.106 46.7307 139.619 46.404C140.142 46.068 140.697 45.9 141.285 45.9C141.77 45.9 142.186 45.9933 142.531 46.18C142.886 46.3573 143.189 46.5813 143.441 46.852L142.797 47.566C142.62 47.3513 142.4 47.1833 142.139 47.062C141.878 46.9313 141.607 46.866 141.327 46.866C140.907 46.866 140.524 46.9873 140.179 47.23C139.834 47.4633 139.549 47.86 139.325 48.42C139.11 48.9707 138.994 49.7173 138.975 50.66C139.255 50.3147 139.582 50.044 139.955 49.848C140.328 49.6427 140.697 49.54 141.061 49.54C141.836 49.54 142.452 49.7733 142.909 50.24C143.376 50.6973 143.609 51.3833 143.609 52.298C143.609 52.8673 143.488 53.3667 143.245 53.796C143.002 54.2253 142.68 54.5613 142.279 54.804C141.887 55.0467 141.448 55.168 140.963 55.168ZM147.474 55.168C146.765 55.168 146.172 55.042 145.696 54.79C145.22 54.5287 144.833 54.2347 144.534 53.908L145.122 53.152C145.393 53.432 145.71 53.6793 146.074 53.894C146.438 54.1087 146.881 54.216 147.404 54.216C147.945 54.216 148.389 54.0667 148.734 53.768C149.079 53.4693 149.252 53.0727 149.252 52.578C149.252 52.2233 149.159 51.9153 148.972 51.654C148.795 51.3833 148.496 51.1733 148.076 51.024C147.665 50.8747 147.105 50.8 146.396 50.8V49.918C147.031 49.918 147.53 49.8433 147.894 49.694C148.267 49.5447 148.533 49.344 148.692 49.092C148.851 48.84 148.93 48.56 148.93 48.252C148.93 47.8133 148.79 47.468 148.51 47.216C148.239 46.964 147.866 46.838 147.39 46.838C147.017 46.838 146.671 46.922 146.354 47.09C146.046 47.258 145.757 47.4773 145.486 47.748L144.87 47.02C145.215 46.6933 145.598 46.4273 146.018 46.222C146.438 46.0073 146.909 45.9 147.432 45.9C148.207 45.9 148.846 46.1007 149.35 46.502C149.854 46.894 150.106 47.4493 150.106 48.168C150.106 48.7093 149.957 49.1527 149.658 49.498C149.359 49.8433 148.967 50.1093 148.482 50.296V50.352C149.023 50.4733 149.481 50.73 149.854 51.122C150.227 51.5047 150.414 52.004 150.414 52.62C150.414 53.1427 150.283 53.5953 150.022 53.978C149.761 54.3607 149.406 54.6547 148.958 54.86C148.519 55.0653 148.025 55.168 147.474 55.168ZM156.858 55.168C156.372 55.168 155.91 55.0793 155.472 54.902C155.033 54.7153 154.65 54.4913 154.324 54.23L154.898 53.46C155.196 53.6933 155.504 53.8893 155.822 54.048C156.139 54.1973 156.498 54.272 156.9 54.272C157.348 54.272 157.684 54.1693 157.908 53.964C158.132 53.7493 158.244 53.4973 158.244 53.208C158.244 52.9747 158.164 52.7787 158.006 52.62C157.856 52.4613 157.66 52.3307 157.418 52.228C157.184 52.116 156.942 52.0133 156.69 51.92C156.372 51.7987 156.06 51.6633 155.752 51.514C155.444 51.3553 155.192 51.1547 154.996 50.912C154.8 50.66 154.702 50.3427 154.702 49.96C154.702 49.4093 154.907 48.952 155.318 48.588C155.738 48.2147 156.316 48.028 157.054 48.028C157.474 48.028 157.866 48.1027 158.23 48.252C158.594 48.4013 158.906 48.5833 159.168 48.798L158.608 49.526C158.374 49.3487 158.132 49.204 157.88 49.092C157.628 48.98 157.352 48.924 157.054 48.924C156.624 48.924 156.307 49.022 156.102 49.218C155.906 49.414 155.808 49.6427 155.808 49.904C155.808 50.1187 155.878 50.296 156.018 50.436C156.158 50.5667 156.34 50.6833 156.564 50.786C156.788 50.8793 157.026 50.9773 157.278 51.08C157.604 51.2013 157.926 51.3413 158.244 51.5C158.561 51.6493 158.822 51.8547 159.028 52.116C159.242 52.368 159.35 52.7087 159.35 53.138C159.35 53.502 159.252 53.838 159.056 54.146C158.869 54.454 158.589 54.7013 158.216 54.888C157.852 55.0747 157.399 55.168 156.858 55.168ZM165.257 57.87V55.448L165.313 54.216C165.042 54.4773 164.73 54.7013 164.375 54.888C164.03 55.0747 163.661 55.168 163.269 55.168C162.42 55.168 161.738 54.86 161.225 54.244C160.712 53.6187 160.455 52.7413 160.455 51.612C160.455 50.8747 160.59 50.24 160.861 49.708C161.141 49.1667 161.505 48.7513 161.953 48.462C162.41 48.1727 162.896 48.028 163.409 48.028C163.801 48.028 164.146 48.098 164.445 48.238C164.744 48.3687 165.047 48.5693 165.355 48.84H165.383L165.495 48.196H166.419V57.87H165.257ZM163.521 54.202C164.118 54.202 164.697 53.8893 165.257 53.264V49.708C164.968 49.4467 164.688 49.2647 164.417 49.162C164.156 49.05 163.885 48.994 163.605 48.994C163.241 48.994 162.91 49.106 162.611 49.33C162.322 49.5447 162.088 49.848 161.911 50.24C161.734 50.6227 161.645 51.0753 161.645 51.598C161.645 52.41 161.808 53.0493 162.135 53.516C162.462 53.9733 162.924 54.202 163.521 54.202ZM168.907 55V49.134H167.983V48.266L168.907 48.196V47.118C168.907 46.4273 169.065 45.8813 169.383 45.48C169.709 45.0693 170.213 44.864 170.895 44.864C171.109 44.864 171.315 44.8873 171.511 44.934C171.707 44.9713 171.879 45.0227 172.029 45.088L171.777 45.97C171.525 45.858 171.268 45.802 171.007 45.802C170.372 45.802 170.055 46.2407 170.055 47.118V48.196H172.547L172.687 46.292H173.639V48.196H175.487V49.134H173.639V52.914C173.639 53.334 173.718 53.6607 173.877 53.894C174.035 54.118 174.311 54.23 174.703 54.23C174.824 54.23 174.955 54.2113 175.095 54.174C175.235 54.1273 175.361 54.0853 175.472 54.048L175.697 54.916C175.51 54.9813 175.305 55.0373 175.081 55.084C174.866 55.14 174.651 55.168 174.437 55.168C173.709 55.168 173.2 54.958 172.911 54.538C172.631 54.118 172.491 53.572 172.491 52.9V49.134H170.055V55H168.907Z" fill="#6B7380"/>
<rect x="44.1162" y="42.3203" width="40.4429" height="39.3786" rx="3" fill="#752A86"/>
<g clip-path="url(#clip0_217_5908)">
<path d="M49.4688 70.4829H62.4949C62.7537 70.4829 62.9636 70.273 62.9636 70.0142C62.9636 69.7554 62.7537 69.5454 62.4949 69.5454H57.9539V61.9981C57.9539 61.7393 57.7439 61.5293 57.4851 61.5293C57.2261 61.5293 57.0164 61.7393 57.0164 61.9981V69.5454H49.9375V49.4407H51.4727C51.5454 49.4407 51.6172 49.4236 51.6824 49.3911L54.6885 47.8882C54.9202 47.7722 55.0139 47.4907 54.8982 47.2593C54.7825 47.0276 54.501 46.9339 54.2693 47.0496L51.3621 48.5032H49.4688C49.21 48.5032 49 48.7131 49 48.9719V70.0142C49 70.273 49.21 70.4829 49.4688 70.4829Z" fill="white"/>
<path d="M72.0139 60.9636C72.2727 60.9636 72.4827 60.7537 72.4827 60.4949V52.98C72.4827 52.7212 72.2727 52.5112 72.0139 52.5112C71.7549 52.5112 71.5452 52.7212 71.5452 52.98V56.0183H67.0039C66.7449 56.0183 66.5352 56.228 66.5352 56.4871C66.5352 56.7458 66.7449 56.9558 67.0039 56.9558H71.5452V60.4949C71.5452 60.7537 71.7549 60.9636 72.0139 60.9636Z" fill="white"/>
<path d="M79.9392 66.4043C79.8137 66.178 79.5286 66.0964 79.302 66.2219C79.0757 66.3477 78.9939 66.6328 79.1196 66.8594C79.7363 67.9712 80.0625 69.2353 80.0625 70.5151C80.0625 74.6768 76.6768 78.0625 72.5151 78.0625C68.3535 78.0625 64.9678 74.6768 64.9678 70.5151C64.9678 66.3535 68.3535 62.9678 72.5151 62.9678C74.6084 62.9678 76.5544 63.8049 77.9949 65.3252C78.1729 65.5132 78.4695 65.521 78.6575 65.343C78.8452 65.165 78.8533 64.8684 78.6753 64.6804C77.0562 62.9714 74.8684 62.0303 72.5151 62.0303C67.8364 62.0303 64.0303 65.8367 64.0303 70.5151C64.0303 75.1936 67.8364 79 72.5151 79C77.1936 79 81 75.1936 81 70.5151C81 69.0764 80.6333 67.655 79.9392 66.4043Z" fill="white"/>
<path d="M66.3679 54.1902C66.2063 53.988 65.9114 53.9551 65.7092 54.1169L63.3325 56.0183H57.9858C57.9751 56.0183 57.9644 56.019 57.9536 56.0198V49.4407H71.5454V50.9758C71.5454 51.2349 71.7551 51.4446 72.0142 51.4446C72.2729 51.4446 72.4829 51.2349 72.4829 50.9758V48.9719C72.4829 48.7131 72.2729 48.5032 72.0142 48.5032H55.481C55.2219 48.5032 55.0122 48.7131 55.0122 48.9719C55.0122 49.2307 55.2219 49.4407 55.481 49.4407H57.0161V58.491C57.0161 58.5974 57.0525 58.7007 57.1189 58.7837L59.123 61.2888C59.2156 61.4045 59.3518 61.4648 59.4893 61.4648C59.592 61.4648 59.6953 61.4312 59.7817 61.3621C59.9839 61.2004 60.0166 60.9053 59.855 60.7031L57.9536 58.3264V56.9541C57.9644 56.9548 57.9751 56.9556 57.9858 56.9556H63.4968C63.6033 56.9556 63.7065 56.9194 63.7896 56.853L66.2947 54.8489C66.4971 54.6873 66.5298 54.3923 66.3679 54.1902Z" fill="white"/>
<path d="M73.5168 73.99C73.7759 73.99 73.9856 73.78 73.9856 73.5212V70.2646C73.9856 69.3154 73.2136 68.5435 72.2644 68.5435C71.771 68.5435 71.3259 68.7522 71.0117 69.0857C70.6978 68.7522 70.2524 68.5435 69.7593 68.5435C69.4495 68.5435 69.1589 68.626 68.9075 68.7698C68.8254 68.6343 68.6768 68.5435 68.5068 68.5435C68.2478 68.5435 68.0381 68.7532 68.0381 69.0122V73.5212C68.0381 73.78 68.2478 73.99 68.5068 73.99C68.7656 73.99 68.9756 73.78 68.9756 73.5212V70.2646C68.9756 69.8325 69.3271 69.481 69.7593 69.481C70.1914 69.481 70.543 69.8325 70.543 70.2646V73.5212C70.543 73.78 70.7529 73.99 71.0117 73.99C71.2708 73.99 71.4805 73.78 71.4805 73.5212V70.2646C71.4805 69.8325 71.832 69.481 72.2644 69.481C72.6965 69.481 73.0481 69.8325 73.0481 70.2646V73.5212C73.0481 73.78 73.2581 73.99 73.5168 73.99Z" fill="white"/>
<path d="M74.6886 69.6826C74.5546 69.8169 74.5143 70.0183 74.5871 70.1936C74.6596 70.3687 74.8305 70.4829 75.0202 70.4829H77.0241C77.2829 70.4829 77.4928 70.2729 77.4928 70.0142C77.4928 69.7554 77.2829 69.5454 77.0241 69.5454H76.1518L76.9015 68.7957C77.2868 68.4104 77.3966 67.8584 77.1881 67.3552C76.9796 66.8521 76.5119 66.5393 75.9672 66.5393C75.1864 66.5393 74.5514 67.1746 74.5514 67.9551V68.01C74.5514 68.269 74.7611 68.4788 75.0202 68.4788C75.279 68.4788 75.4889 68.269 75.4889 68.01V67.9551C75.4889 67.6914 75.7035 67.4768 75.9672 67.4768C76.2052 67.4768 76.299 67.6584 76.3219 67.7139C76.3449 67.7695 76.4071 67.9641 76.2387 68.1326L74.6886 69.6826Z" fill="white"/>
<path d="M62.4949 72.5514H51.0168L51.2319 72.4081C51.4473 72.2646 51.5054 71.9735 51.3618 71.7582C51.2183 71.5426 50.9272 71.4845 50.7119 71.6281L49.2087 72.63C49.0784 72.7169 49 72.8634 49 73.0202C49 73.1769 49.0784 73.3232 49.2087 73.4101L50.7117 74.412C50.7917 74.4655 50.8821 74.4909 50.9714 74.4909C51.1228 74.4909 51.2715 74.4176 51.3618 74.2821C51.5054 74.0668 51.4473 73.7758 51.2317 73.6322L51.0168 73.4889H62.4949C62.7539 73.4889 62.9636 73.279 62.9636 73.0202C62.9636 72.7611 62.7539 72.5514 62.4949 72.5514Z" fill="white"/>
<path d="M73.758 50.865C73.9736 51.0085 74.2646 50.9504 74.4081 50.7349L74.5514 50.52V60.9961C74.5514 61.2549 74.7611 61.4648 75.0202 61.4648C75.279 61.4648 75.4889 61.2549 75.4889 60.9961V50.52L75.632 50.7349C75.7223 50.8704 75.871 50.9436 76.0224 50.9436C76.112 50.9436 76.2021 50.9182 76.2821 50.865C76.4975 50.7214 76.5556 50.4302 76.412 50.2148L75.4101 48.7119C75.3232 48.5815 75.1769 48.5032 75.0202 48.5032C74.8632 48.5032 74.717 48.5815 74.63 48.7119L73.6281 50.2148C73.4845 50.4302 73.5426 50.7214 73.758 50.865Z" fill="white"/>
</g>
<defs>
<filter id="filter0_dd_217_5908" x="0" y="0" width="215" height="113" filterUnits="userSpaceOnUse" color-interpolation-filters="sRGB">
<feFlood flood-opacity="0" result="BackgroundImageFix"/>
<feColorMatrix in="SourceAlpha" type="matrix" values="0 0 0 0 0 0 0 0 0 0 0 0 0 0 0 0 0 0 127 0" result="hardAlpha"/>
<feOffset dx="-9" dy="-6"/>
<feGaussianBlur stdDeviation="10"/>
<feComposite in2="hardAlpha" operator="out"/>
<feColorMatrix type="matrix" values="0 0 0 0 0 0 0 0 0 0 0 0 0 0 0 0 0 0 0.05 0"/>
<feBlend mode="normal" in2="BackgroundImageFix" result="effect1_dropShadow_217_5908"/>
<feColorMatrix in="SourceAlpha" type="matrix" values="0 0 0 0 0 0 0 0 0 0 0 0 0 0 0 0 0 0 127 0" result="hardAlpha"/>
<feOffset dx="8" dy="4"/>
<feGaussianBlur stdDeviation="5"/>
<feComposite in2="hardAlpha" operator="out"/>
<feColorMatrix type="matrix" values="0 0 0 0 0 0 0 0 0 0 0 0 0 0 0 0 0 0 0.05 0"/>
<feBlend mode="normal" in2="effect1_dropShadow_217_5908" result="effect2_dropShadow_217_5908"/>
<feBlend mode="normal" in="SourceGraphic" in2="effect2_dropShadow_217_5908" result="shape"/>
</filter>
<clipPath id="clip0_217_5908">
<rect width="32" height="32" fill="white" transform="translate(49 47)"/>
</clipPath>
</defs>
</svg>
