<svg width="13" height="14" viewBox="0 0 13 14" fill="none" xmlns="http://www.w3.org/2000/svg">
<path d="M4.42223 7H8.57778H4.42223ZM4.42223 9.66667H8.57778H4.42223ZM9.96297 13H3.03704C2.66967 13 2.31734 12.8595 2.05757 12.6095C1.79779 12.3594 1.65186 12.0203 1.65186 11.6667V2.33333C1.65186 1.97971 1.79779 1.64057 2.05757 1.39052C2.31734 1.14048 2.66967 1 3.03704 1H6.90586C7.08954 1.00004 7.26567 1.0703 7.39553 1.19533L11.1452 4.80467C11.2751 4.92966 11.3481 5.0992 11.3482 5.276V11.6667C11.3482 12.0203 11.2022 12.3594 10.9424 12.6095C10.6827 12.8595 10.3303 13 9.96297 13Z" stroke="#743393" stroke-width="1.6" stroke-linecap="round" stroke-linejoin="round"/>
</svg>
