<svg width="168" height="16" viewBox="0 0 168 16" fill="none" xmlns="http://www.w3.org/2000/svg">
<path d="M10.1616 0.500977V15.8005H8.33779L1.86732 4.22625V15.8005H0V0.500977H1.78051L8.29426 12.1863V0.500977H10.1616Z" fill="white"/>
<path d="M25.0573 0.500977V2.23056H17.892V7.02001H24.406V8.74956H17.892V14.071H25.0573V15.8005H16.0247V0.500977H25.0573Z" fill="white"/>
<path d="M33.8297 15.8005H31.9625L28.3147 0.500977H30.2688L32.983 12.519L36.2834 0.500977H38.1289L41.4944 12.5853L44.2086 0.501117H46.1628L42.515 15.8005H40.6259L37.2169 3.91561L33.8297 15.8005Z" fill="white"/>
<path d="M53.0684 13.1841H59.3652V15.8005H50.0286V0.500977H53.0684V13.1841Z" fill="white"/>
<path d="M89.8516 0.500977V9.59203C89.8516 14.1154 87.4195 16.0001 84.0978 16.0001C80.776 16.0001 78.3438 14.1154 78.3438 9.61423V0.500977H81.3837V9.61423C81.3837 12.2307 82.2304 13.3836 84.0978 13.3836C85.9651 13.3836 86.8118 12.2307 86.8118 9.61423V0.500977H89.8516Z" fill="white"/>
<path d="M106.246 0.500977V15.8005H103.705L97.8645 6.33264V15.8005H94.9768V0.500977H97.4955L103.358 10.1021V0.500977H106.246Z" fill="white"/>
<path d="M119.252 5.24585C118.97 3.80456 118.145 2.91772 116.669 2.91772C114.91 2.91772 113.976 4.13728 113.976 7.06423V9.23722C113.976 12.0754 114.91 13.3834 116.669 13.3834C118.188 13.3834 118.927 12.6073 119.252 11.0553H122.14C121.641 14.492 119.752 15.9999 116.669 15.9999C113.303 15.9999 110.937 13.9157 110.937 9.23722V7.06423C110.937 2.34138 113.303 0.30127 116.669 0.30127C119.643 0.30127 121.663 1.89809 122.162 5.24585H119.252Z" fill="white"/>
<path d="M129.502 6.57657H134.691V0.500977H137.731V15.8005H134.691V9.193H129.502V15.8005H126.462V0.500977H129.502V6.57657Z" fill="white"/>
<path d="M152.214 0.500977V3.1396H145.917V6.57657H151.563V9.193H145.917V13.1841H152.214V15.8005H142.877V0.500977H152.214Z" fill="white"/>
<path d="M164.656 15.8005L161.964 9.79145H159.532V15.8005H156.492V0.500977H161.855C165.308 0.500977 167.457 2.07534 167.457 5.17968C167.457 7.24171 166.523 8.59418 164.895 9.28154L168 15.8005H164.656ZM161.573 7.17511C163.375 7.17511 164.417 6.77608 164.417 5.17979C164.417 3.58351 163.375 3.13957 161.573 3.13957H159.532V7.17511H161.573Z" fill="white"/>
<path d="M68.7413 0L62.0747 6.28874V15.8005L68.7413 9.51173L75.4078 15.8005V6.28874L68.7413 0ZM69.9345 7.78231H67.5481V5.34544H69.9345V7.78231Z" fill="white"/>
</svg>
