<svg width="256" height="24" viewBox="0 0 256 24" fill="none" xmlns="http://www.w3.org/2000/svg">
<path d="M15.4844 0.751373V23.7007H12.7052L2.84544 6.33928V23.7007H0V0.751373H2.71315L12.6389 18.2793V0.751373H15.4844Z" fill="#994E98"/>
<path d="M38.183 0.751373V3.34575H27.2644V10.5299H37.1905V13.1243H27.2644V21.1064H38.183V23.7007H24.4189V0.751373H38.183Z" fill="#994E98"/>
<path d="M51.5503 23.7007H48.7051L43.1465 0.751373H46.1242L50.2601 18.7784L55.2892 0.751373H58.1015L63.2299 18.8778L67.3658 0.751584H70.3437L64.7851 23.7007H61.9065L56.7118 5.87333L51.5503 23.7007Z" fill="#994E98"/>
<path d="M80.8665 19.7761H90.4616V23.7007H76.2344V0.751373H80.8665V19.7761Z" fill="#752A86"/>
<path d="M136.917 0.751373V14.388C136.917 21.173 133.211 24 128.149 24C123.087 24 119.381 21.173 119.381 14.4213V0.751373H124.013V14.4213C124.013 18.3459 125.303 20.0753 128.149 20.0753C130.994 20.0753 132.285 18.3459 132.285 14.4213V0.751373H136.917Z" fill="#752A86"/>
<path d="M161.898 0.751373V23.7007H158.027L149.127 9.49887V23.7007H144.727V0.751373H148.565L157.498 15.153V0.751373H161.898Z" fill="#752A86"/>
<path d="M181.718 7.86892C181.288 5.70699 180.03 4.37673 177.78 4.37673C175.1 4.37673 173.678 6.20607 173.678 10.5965V13.856C173.678 18.1132 175.1 20.0753 177.78 20.0753C180.096 20.0753 181.221 18.9111 181.718 16.5831H186.118C185.357 21.7382 182.479 24 177.781 24C172.652 24 169.046 20.8737 169.046 13.856V10.5965C169.046 3.51222 172.652 0.452057 177.781 0.452057C182.313 0.452057 185.39 2.84728 186.151 7.86892H181.718Z" fill="#752A86"/>
<path d="M197.336 9.86477H205.244V0.751373H209.876V23.7007H205.244V13.7894H197.336V23.7007H192.704V0.751373H197.336V9.86477Z" fill="#752A86"/>
<path d="M231.945 0.751373V4.70931H222.35V9.86477H230.952V13.7894H222.35V19.7761H231.945V23.7007H217.718V0.751373H231.945Z" fill="#752A86"/>
<path d="M250.905 23.7007L246.802 14.6871H243.096V23.7007H238.465V0.751373H246.637C251.898 0.751373 255.173 3.11292 255.173 7.76943C255.173 10.8625 253.75 12.8912 251.269 13.9222L256 23.7007H250.905ZM246.207 10.7626C248.953 10.7626 250.541 10.164 250.541 7.7696C250.541 5.37517 248.953 4.70926 246.207 4.70926H243.097V10.7626H246.207Z" fill="#752A86"/>
<path d="M104.748 0L94.5898 9.43311V23.7007L104.748 14.2676L114.907 23.7007V9.43311L104.748 0ZM106.567 11.6735H102.93V8.01816H106.567V11.6735Z" fill="#752A86"/>
</svg>
