<svg width="256" height="24" viewBox="0 0 256 24" fill="none" xmlns="http://www.w3.org/2000/svg">
<path d="M15.4844 0.751465V23.7008H12.7052L2.84544 6.33937V23.7008H0V0.751465H2.71315L12.6389 18.2794V0.751465H15.4844Z" fill="white"/>
<path d="M38.183 0.751465V3.34584H27.2644V10.53H37.1905V13.1243H27.2644V21.1065H38.183V23.7008H24.4189V0.751465H38.183Z" fill="white"/>
<path d="M51.5503 23.7008H48.7051L43.1465 0.751465H46.1242L50.2601 18.7785L55.2892 0.751465H58.1015L63.2299 18.8779L67.3658 0.751675H70.3437L64.7851 23.7008H61.9065L56.7118 5.87342L51.5503 23.7008Z" fill="white"/>
<path d="M80.8665 19.7762H90.4616V23.7008H76.2344V0.751465H80.8665V19.7762Z" fill="white"/>
<path d="M136.917 0.751465V14.388C136.917 21.1731 133.211 24.0001 128.149 24.0001C123.087 24.0001 119.381 21.1731 119.381 14.4213V0.751465H124.013V14.4213C124.013 18.346 125.303 20.0754 128.149 20.0754C130.994 20.0754 132.285 18.346 132.285 14.4213V0.751465H136.917Z" fill="white"/>
<path d="M161.898 0.751465V23.7008H158.027L149.127 9.49897V23.7008H144.727V0.751465H148.565L157.498 15.1531V0.751465H161.898Z" fill="white"/>
<path d="M181.718 7.86902C181.288 5.70708 180.03 4.37683 177.78 4.37683C175.1 4.37683 173.678 6.20616 173.678 10.5966V13.8561C173.678 18.1133 175.1 20.0754 177.78 20.0754C180.096 20.0754 181.221 18.9112 181.718 16.5832H186.118C185.357 21.7383 182.479 24.0001 177.781 24.0001C172.652 24.0001 169.046 20.8737 169.046 13.8561V10.5966C169.046 3.51231 172.652 0.452148 177.781 0.452148C182.313 0.452148 185.39 2.84737 186.151 7.86902H181.718Z" fill="white"/>
<path d="M197.336 9.86486H205.244V0.751465H209.876V23.7008H205.244V13.7895H197.336V23.7008H192.704V0.751465H197.336V9.86486Z" fill="white"/>
<path d="M231.945 0.751465V4.7094H222.35V9.86486H230.952V13.7895H222.35V19.7762H231.945V23.7008H217.718V0.751465H231.945Z" fill="white"/>
<path d="M250.905 23.7008L246.802 14.6872H243.096V23.7008H238.465V0.751465H246.637C251.898 0.751465 255.173 3.11301 255.173 7.76952C255.173 10.8626 253.75 12.8913 251.269 13.9223L256 23.7008H250.905ZM246.207 10.7627C248.953 10.7627 250.541 10.1641 250.541 7.76969C250.541 5.37526 248.953 4.70936 246.207 4.70936H243.097V10.7627H246.207Z" fill="white"/>
<path d="M104.748 0L94.5898 9.43311V23.7007L104.748 14.2676L114.907 23.7007V9.43311L104.748 0ZM106.567 11.6735H102.93V8.01816H106.567V11.6735Z" fill="white"/>
</svg>
