<svg width="59" height="16" viewBox="0 0 59 16" fill="none" xmlns="http://www.w3.org/2000/svg">
<path d="M28.5609 4.3802C28.0668 4.3802 27.7959 4.4274 27.3974 4.61619C26.6643 4.94659 26.1224 5.48152 25.6443 6.34685L25.485 6.61432L25.5009 6.12659C25.5168 5.85912 25.5328 5.37139 25.5487 5.02526L25.5646 4.41166H25.4531C25.3256 4.41166 21.1181 5.24553 20.9906 5.29273C20.911 5.32419 20.895 5.35566 20.895 5.56019C20.895 5.76472 20.911 5.79619 20.9906 5.81192C21.0385 5.82766 21.2297 5.85912 21.4209 5.89059C21.7875 5.95352 21.8991 6.01646 22.0584 6.22099C22.3453 6.58285 22.3931 7.24365 22.3931 9.99697C22.3931 12.2468 22.3453 13.3796 22.2338 13.7258C22.1063 14.1506 21.8672 14.3708 21.4528 14.4495C21.3253 14.481 21.15 14.5124 21.0703 14.5282L20.9269 14.5596L20.911 14.8428C20.895 15.0474 20.911 15.1418 20.9588 15.1732C20.9906 15.189 22.425 15.2047 24.1462 15.2047L27.2859 15.189L27.3018 14.8586C27.3018 14.6855 27.3018 14.5282 27.2859 14.5282C27.0468 14.5282 26.2978 14.4338 26.1703 14.3708C25.8196 14.2292 25.6443 13.9146 25.5646 13.2695C25.485 12.53 25.4212 10.6578 25.4531 9.14738C25.485 7.60552 25.485 7.60552 25.5806 7.49538C25.8037 7.25938 26.3774 7.07059 26.9034 7.07059C27.3177 7.07059 27.748 7.18072 28.1943 7.38525C28.4174 7.49538 28.6087 7.55832 28.6405 7.55832C28.7043 7.54258 29.7243 4.8522 29.7243 4.72633C29.7243 4.569 29.1346 4.3802 28.5609 4.3802Z" fill="#9CA2AE"/>
<path d="M20.9101 9.053C20.6869 7.19647 19.8901 5.84341 18.5673 5.07248C17.101 4.22288 14.8858 4.17568 13.308 4.96235C12.1605 5.52874 11.2361 6.61434 10.8218 7.873C10.3914 9.16313 10.3914 10.8623 10.8218 12.1682C11.0927 13.0178 11.4592 13.6314 12.033 14.182C12.7183 14.8586 13.6108 15.2834 14.6467 15.425C15.0133 15.4722 16.1767 15.4722 16.5592 15.425C16.7345 15.3935 17.0532 15.3306 17.2445 15.2834C19.1091 14.7484 20.3841 13.3324 20.8144 11.3186C20.926 10.8151 20.9738 9.61939 20.9101 9.053ZM16.1926 14.6226C15.0292 14.9687 14.2005 13.8674 13.8817 11.5861C13.7702 10.8466 13.7861 8.83273 13.8817 7.99886C14.1048 6.15807 14.6786 5.22981 15.587 5.22981C16.0014 5.22981 16.2245 5.32421 16.5432 5.63887C17.3082 6.39407 17.6589 7.84153 17.6589 10.1071C17.6589 11.9164 17.4676 13.0492 17.0692 13.8202C16.862 14.182 16.4954 14.5282 16.1926 14.6226Z" fill="#9CA2AE"/>
<path d="M5.60992 1.65831H6.94866C8.47863 1.65831 8.73363 1.68978 9.2755 1.95724C10.0564 2.33484 10.6302 3.09004 11.1402 4.41163C11.3473 4.94657 11.3473 4.94657 11.7936 4.80497L12.0964 4.71057L12.0645 2.77537C12.0486 1.70551 12.0167 0.761514 12.0167 0.682848L11.9848 0.509783L6.13585 0.494049C2.91652 0.494049 0.223122 0.49405 0.143436 0.509783L0 0.541249L0.015937 0.887381L0.0318741 1.23351L0.478119 1.28071C1.05186 1.34365 1.40248 1.51671 1.60967 1.79991C2.07185 2.46071 2.15153 3.37324 2.15153 7.66842C2.15153 12.2468 2.05591 13.3639 1.60967 13.9303C1.38654 14.2292 1.1953 14.3236 0.669365 14.418C-0.0159378 14.5439 0.015937 14.5281 0.015937 14.8743C0.015937 15.0631 0.0318748 15.1732 0.0637494 15.1889C0.143436 15.2204 7.61802 15.2204 7.69771 15.1889C7.79333 15.1575 7.79333 14.6068 7.69771 14.5596C7.6499 14.5439 7.41084 14.4967 7.1399 14.4495C6.86897 14.4023 6.5821 14.3393 6.48647 14.3079C5.99242 14.1033 5.72149 13.5212 5.62586 12.4671C5.54618 11.7119 5.49836 10.3116 5.49836 9.28895V8.34495L5.96054 8.36068C6.93272 8.39215 7.42677 8.43935 7.63396 8.53375C8.0802 8.72255 8.43082 9.25748 8.60613 10.0127L8.70176 10.406L9.05238 10.4217L9.403 10.4375V5.40283L9.05238 5.41856L8.70176 5.4343L8.60613 5.82763C8.41489 6.59856 8.09614 7.07055 7.61802 7.29082C7.42677 7.38522 7.28334 7.40095 6.83709 7.43242C6.53429 7.44815 6.10398 7.46389 5.89679 7.46389H5.49836V6.22096C5.49836 4.97803 5.56211 2.31911 5.60992 1.91004V1.65831Z" fill="#9CA2AE"/>
<path d="M58.6973 10.5319C58.3467 9.82387 57.6773 9.35187 56.3067 8.78547C55.1911 8.32921 54.6174 7.99881 54.2827 7.63695C53.9958 7.33801 53.9161 7.08628 53.948 6.64575C53.9799 6.23669 54.0755 5.98495 54.3464 5.70175C54.6811 5.33989 55.1592 5.21402 55.717 5.33989C56.6255 5.52869 57.2152 6.15802 57.7251 7.47961C57.9005 7.95161 57.9323 7.96734 58.2511 7.84148L58.4583 7.76281V7.21215C58.4583 6.91321 58.4423 6.28388 58.4264 5.81189L58.3945 4.96229L58.2351 4.89936C57.3905 4.55322 55.7967 4.33296 54.7608 4.42736C53.5814 4.53749 52.7049 4.89936 52.0355 5.59162C51.3662 6.26815 51.0634 7.07055 51.1271 8.01454C51.1749 8.80121 51.398 9.35187 51.8921 9.85534C52.3383 10.3116 52.7208 10.5319 53.8205 10.9567C55.5736 11.6332 56.0517 12.0423 56.0358 12.8761C56.0358 13.5841 55.6533 14.1033 54.968 14.3393C54.713 14.418 54.0914 14.418 53.7568 14.3393C52.8802 14.1191 52.2108 13.3639 51.6371 11.9793L51.4937 11.6175L51.3184 11.6332C51.2227 11.6332 51.0952 11.6647 51.0315 11.6961L50.9199 11.7591L50.9359 12.3727C50.9359 12.7031 50.9518 13.4111 50.9677 13.9303L50.9996 14.89L51.1909 14.9687C51.5893 15.1417 52.8005 15.3934 53.5496 15.4721C53.6452 15.4878 54.1552 15.4878 54.6971 15.4721C55.6214 15.4564 55.7011 15.4564 56.1633 15.3305C57.5498 14.9686 58.4423 14.2135 58.8408 13.0649C58.9683 12.7031 58.9842 12.6087 59.0001 12.0737C58.9842 11.35 58.9204 10.9881 58.6973 10.5319Z" fill="#9CA2AE"/>
<path d="M48.0038 4.80501C46.8404 4.22288 45.0395 4.27008 43.7326 4.89941C42.4895 5.49727 41.6289 6.5042 41.1508 7.9202C40.8958 8.65966 40.8161 9.24179 40.848 10.2015C40.8639 10.7994 40.8958 11.1141 40.9595 11.3973C41.4536 13.5684 42.9517 15.0316 45.0554 15.4092C45.5176 15.4879 46.5695 15.4879 47.0316 15.4092C47.701 15.2991 48.466 15.0002 48.96 14.6698C49.5497 14.2764 50.1553 13.6786 50.1553 13.4898C50.1553 13.3796 49.9482 13.1122 49.8685 13.1122C49.8366 13.1122 49.6613 13.1908 49.5019 13.301C48.9282 13.6786 48.3704 13.8202 47.5894 13.8202C46.5216 13.8202 45.8523 13.5527 45.167 12.8762C44.8642 12.5772 44.7367 12.4199 44.5932 12.121C44.2585 11.4759 44.0673 10.7207 44.0354 9.87112L44.0195 9.50926L47.1591 9.49352L50.2988 9.47779L50.3147 9.27326C50.3147 9.16313 50.3147 8.86419 50.2828 8.59673C50.0916 6.75594 49.3107 5.46581 48.0038 4.80501ZM44.8482 8.62819L44.0514 8.64393V8.47086C44.0514 8.37646 44.0832 8.12473 44.1151 7.9202C44.386 6.23674 45.0235 5.22981 45.8204 5.22981C46.5535 5.22981 46.9998 6.221 47.0954 8.04606L47.1273 8.56526L46.3941 8.59673C45.9798 8.59673 45.2785 8.61246 44.8482 8.62819Z" fill="#9CA2AE"/>
<path d="M36.6408 4.61618C36.3858 4.56898 36.1626 4.55325 35.6845 4.56898C34.9514 4.60045 34.4574 4.69485 33.8995 4.94658C33.7242 5.02525 33.5649 5.10391 33.5489 5.10391C33.533 5.10391 33.533 4.01832 33.5489 2.68099C33.5649 0.792997 33.5649 0.258064 33.517 0.258064C33.3736 0.258064 29.0546 1.0762 29.0068 1.10766C28.9749 1.13913 28.959 1.23353 28.959 1.35939C28.9749 1.59539 28.943 1.57966 29.469 1.68979C29.6283 1.72126 29.8196 1.79993 29.8833 1.84713C30.0587 1.97299 30.2021 2.24046 30.3137 2.61806C30.3933 2.91699 30.4093 3.13725 30.4412 5.18258C30.473 7.2751 30.473 9.43056 30.4093 13.3639L30.3774 15.0001L30.6802 15.0631C31.1265 15.1575 32.4174 15.3777 32.8317 15.4249C33.4533 15.4879 34.8877 15.4721 35.3498 15.4092C37.342 15.1103 38.8401 13.9775 39.5413 12.2311C39.7326 11.7748 39.9079 11.0511 39.9716 10.5319C40.0513 9.91829 40.0035 8.67537 39.892 8.1719C39.4776 6.26817 38.2664 4.94658 36.6408 4.61618ZM33.6127 14.4809C33.5649 14.3393 33.5011 9.43056 33.517 7.47964L33.533 5.95351L33.8199 5.87484C34.0111 5.82764 34.2342 5.79618 34.4892 5.79618C34.8558 5.79618 34.8877 5.81191 35.1905 5.95351C35.9236 6.31537 36.4176 7.19644 36.6567 8.53377C36.7364 9.03723 36.7523 10.3903 36.6726 10.9882C36.4814 12.4513 36.0033 13.6313 35.3498 14.1977C35.0948 14.418 34.8558 14.5439 34.553 14.6068C34.3298 14.654 34.2661 14.654 33.8517 14.6225C33.6924 14.5911 33.6605 14.5753 33.6127 14.4809Z" fill="#9CA2AE"/>
</svg>
