<svg width="107" height="29" viewBox="0 0 107 29" fill="none" xmlns="http://www.w3.org/2000/svg">
<path d="M51.826 8.28296C50.9389 8.28296 50.4524 8.36799 49.737 8.7081C48.4206 9.30329 47.4477 10.2669 46.5892 11.8258L46.303 12.3076L46.3316 11.429C46.3603 10.9472 46.3889 10.0685 46.4175 9.44501L46.4461 8.33965H46.2458C46.0169 8.33965 38.4621 9.84181 38.2332 9.92683C38.0901 9.98352 38.0615 10.0402 38.0615 10.4087C38.0615 10.7771 38.0901 10.8338 38.2332 10.8621C38.3191 10.8905 38.6625 10.9472 39.0059 11.0039C39.664 11.1172 39.8643 11.2306 40.1505 11.5991C40.6656 12.2509 40.7515 13.4413 40.7515 18.4013C40.7515 22.4543 40.6656 24.495 40.4653 25.1185C40.2364 25.8837 39.8071 26.2805 39.0631 26.4223C38.8342 26.4789 38.5194 26.5356 38.3763 26.564L38.1188 26.6207L38.0901 27.1308C38.0615 27.4993 38.0901 27.6693 38.176 27.726C38.2332 27.7544 40.8087 27.7827 43.8993 27.7827L49.5367 27.7544L49.5653 27.1592C49.5653 26.8474 49.5653 26.564 49.5367 26.564C49.1074 26.564 47.7625 26.3939 47.5335 26.2805C46.904 26.0255 46.5892 25.4586 46.4461 24.2966C46.303 22.9645 46.1886 19.5917 46.2458 16.8708C46.303 14.0932 46.303 14.0932 46.4747 13.8948C46.8754 13.4697 47.9055 13.1296 48.8499 13.1296C49.5939 13.1296 50.3665 13.328 51.1678 13.6964C51.5684 13.8948 51.9118 14.0082 51.9691 14.0082C52.0835 13.9798 53.915 9.13324 53.915 8.9065C53.915 8.62307 52.8562 8.28296 51.826 8.28296Z" fill="#9CA2AE"/>
<path d="M38.0882 16.7008C37.6875 13.3563 36.2567 10.9189 33.8816 9.53007C31.2489 7.99957 27.2712 7.91454 24.4382 9.33167C22.3778 10.352 20.718 12.3076 19.974 14.5751C19.2014 16.8992 19.2014 19.9602 19.974 22.3126C20.4605 23.8431 21.1187 24.9485 22.1489 25.9405C23.3794 27.1592 24.9819 27.9245 26.8419 28.1795C27.5001 28.2646 29.5891 28.2646 30.2759 28.1795C30.5907 28.1229 31.163 28.0095 31.5064 27.9245C34.8545 26.9608 37.1438 24.41 37.9165 20.7821C38.1168 19.8751 38.2026 17.7211 38.0882 16.7008ZM29.6177 26.7341C27.5287 27.3576 26.0407 25.3736 25.4684 21.2639C25.268 19.9318 25.2967 16.304 25.4684 14.8018C25.869 11.4857 26.8992 9.8135 28.5303 9.8135C29.2743 9.8135 29.675 9.98355 30.2473 10.5504C31.6209 11.9108 32.2504 14.5184 32.2504 18.5997C32.2504 21.8591 31.907 23.8998 31.1916 25.2886C30.8196 25.9405 30.1614 26.564 29.6177 26.7341Z" fill="#9CA2AE"/>
<path d="M10.6159 3.37962H13.0197C15.7669 3.37962 16.2247 3.4363 17.1977 3.91812C18.5999 4.59835 19.6301 5.9588 20.5458 8.33958C20.9178 9.30323 20.9178 9.30323 21.7191 9.04815L22.2628 8.87809L22.2056 5.39194C22.1769 3.46464 22.1197 1.76408 22.1197 1.62237L22.0625 1.3106L11.5603 1.28226C5.77976 1.28226 0.943598 1.28226 0.800516 1.3106L0.542969 1.36729L0.571585 1.99082L0.600201 2.61436L1.40146 2.69939C2.43165 2.81276 3.06121 3.12453 3.43322 3.6347C4.2631 4.82509 4.40618 6.46897 4.40618 14.2065C4.40618 22.4542 4.23448 24.4666 3.43322 25.4869C3.03259 26.0254 2.68919 26.1955 1.74486 26.3655C0.514351 26.5923 0.571585 26.5639 0.571585 27.1874C0.571585 27.5276 0.600202 27.726 0.657435 27.7543C0.800516 27.811 14.2216 27.811 14.3647 27.7543C14.5364 27.6976 14.5364 26.7056 14.3647 26.6206C14.2788 26.5923 13.8496 26.5072 13.3631 26.4222C12.8766 26.3372 12.3615 26.2238 12.1898 26.1671C11.3027 25.7987 10.8162 24.75 10.6445 22.851C10.5015 21.4906 10.4156 18.9681 10.4156 17.1258V15.4252L11.2455 15.4536C12.9911 15.5103 13.8782 15.5953 14.2502 15.7654C15.0515 16.1055 15.681 17.0691 15.9958 18.4296L16.1675 19.1381L16.7971 19.1665L17.4266 19.1948V10.1252L16.7971 10.1535L16.1675 10.1819L15.9958 10.8904C15.6524 12.2792 15.0801 13.1295 14.2216 13.5263C13.8782 13.6963 13.6206 13.7247 12.8194 13.7814C12.2757 13.8097 11.503 13.8381 11.131 13.8381H10.4156V11.599C10.4156 9.35992 10.5301 4.57001 10.6159 3.8331V3.37962Z" fill="#9CA2AE"/>
<path d="M105.937 19.3649C105.308 18.0895 104.106 17.2392 101.645 16.2188C99.6418 15.3969 98.6117 14.8017 98.0107 14.1498C97.4956 13.6113 97.3525 13.1578 97.4098 12.3642C97.467 11.6273 97.6387 11.1739 98.1252 10.6637C98.7261 10.0118 99.5846 9.78506 100.586 10.0118C102.217 10.3519 103.276 11.4856 104.192 13.8664C104.507 14.7167 104.564 14.745 105.136 14.5183L105.508 14.3766V13.3846C105.508 12.8461 105.48 11.7124 105.451 10.8621L105.394 9.33158L105.108 9.21821C103.591 8.59467 100.729 8.19787 98.8692 8.36793C96.7516 8.56632 95.1777 9.21821 93.9758 10.4653C92.7739 11.684 92.2302 13.1295 92.3447 14.8301C92.4305 16.2472 92.8311 17.2392 93.7183 18.1461C94.5195 18.9681 95.2063 19.3649 97.1808 20.1301C100.329 21.3489 101.187 22.0858 101.159 23.5879C101.159 24.8634 100.472 25.7987 99.2412 26.2238C98.7834 26.3655 97.6673 26.3655 97.0664 26.2238C95.4925 25.827 94.2906 24.4666 93.2604 21.9724L93.0028 21.3205L92.6881 21.3489C92.5164 21.3489 92.2874 21.4056 92.173 21.4622L91.9727 21.5756L92.0013 22.681C92.0013 23.2762 92.0299 24.5516 92.0585 25.4869L92.1157 27.2158L92.4591 27.3575C93.1745 27.6693 95.3494 28.1228 96.6944 28.2645C96.8661 28.2928 97.7818 28.2928 98.7547 28.2645C100.414 28.2361 100.558 28.2361 101.387 28.0094C103.877 27.3575 105.48 25.9971 106.195 23.9281C106.424 23.2762 106.453 23.1061 106.481 22.1425C106.453 20.8387 106.338 20.1868 105.937 19.3649Z" fill="#9CA2AE"/>
<path d="M86.7367 9.04822C84.6477 7.99954 81.414 8.08456 79.0675 9.21827C76.8354 10.2953 75.2901 12.1092 74.4316 14.6601C73.9738 15.9922 73.8307 17.0408 73.8879 18.7697C73.9165 19.8468 73.9738 20.4136 74.0882 20.9238C74.9754 24.8351 77.6653 27.471 81.4427 28.1512C82.2725 28.2929 84.1612 28.2929 84.9911 28.1512C86.193 27.9528 87.5666 27.4143 88.4537 26.8191C89.5125 26.1105 90.5999 25.0335 90.5999 24.6934C90.5999 24.495 90.2279 24.0131 90.0848 24.0131C90.0276 24.0131 89.7128 24.1549 89.4266 24.3533C88.3964 25.0335 87.3949 25.2886 85.9927 25.2886C84.0754 25.2886 82.8735 24.8067 81.643 23.588C81.0993 23.0495 80.8703 22.7661 80.6128 22.2276C80.0118 21.0655 79.6684 19.7051 79.6112 18.1746L79.5826 17.5227L85.22 17.4943L90.8574 17.466L90.8861 17.0975C90.8861 16.8991 90.8861 16.3606 90.8288 15.8788C90.4854 12.5627 89.0832 10.2386 86.7367 9.04822ZM81.0706 15.9355L79.6398 15.9638V15.6521C79.6398 15.482 79.697 15.0285 79.7543 14.6601C80.2408 11.6274 81.3854 9.81347 82.8162 9.81347C84.1326 9.81347 84.9338 11.5991 85.1055 14.8868L85.1628 15.8221L83.8464 15.8788C83.1024 15.8788 81.8433 15.9071 81.0706 15.9355Z" fill="#9CA2AE"/>
<path d="M66.3331 8.70806C65.8753 8.62304 65.4746 8.5947 64.6161 8.62304C63.2998 8.67972 62.4127 8.84978 61.4111 9.30326C61.0963 9.44497 60.8102 9.58669 60.7816 9.58669C60.7529 9.58669 60.7529 7.63105 60.7816 5.22192C60.8102 1.8208 60.8102 0.857147 60.7243 0.857147C60.4668 0.857147 52.7117 2.33097 52.6259 2.38765C52.5687 2.44434 52.54 2.61439 52.54 2.84113C52.5687 3.26627 52.5114 3.23793 53.4558 3.43633C53.7419 3.49302 54.0853 3.63473 54.1998 3.71976C54.5146 3.9465 54.7721 4.42832 54.9724 5.10855C55.1155 5.64706 55.1441 6.04386 55.2014 9.7284C55.2586 13.498 55.2586 17.3809 55.1441 24.4666L55.0869 27.4142L55.6306 27.5276C56.4319 27.6976 58.7498 28.0944 59.4938 28.1795C60.6099 28.2928 63.1853 28.2645 64.0152 28.1511C67.5922 27.6126 70.2822 25.5719 71.5413 22.4259C71.8847 21.604 72.1995 20.3002 72.3139 19.3649C72.457 18.2595 72.3712 16.0205 72.1709 15.1135C71.4268 11.684 69.252 9.30326 66.3331 8.70806ZM60.896 26.4789C60.8102 26.2238 60.6957 17.3809 60.7243 13.8664L60.7529 11.1172L61.268 10.9755C61.6114 10.8904 62.0121 10.8338 62.4699 10.8338C63.1281 10.8338 63.1853 10.8621 63.729 11.1172C65.0454 11.7691 65.9325 13.3563 66.3617 15.7654C66.5048 16.6724 66.5334 19.1098 66.3904 20.1868C66.047 22.8227 65.1885 24.9484 64.0152 25.9687C63.5573 26.3655 63.1281 26.5923 62.5844 26.7057C62.1838 26.7907 62.0693 26.7907 61.3253 26.734C61.0391 26.6773 60.9819 26.649 60.896 26.4789Z" fill="#9CA2AE"/>
</svg>
