<svg width="94" height="28" viewBox="0 0 94 28" fill="none" xmlns="http://www.w3.org/2000/svg">
<g clip-path="url(#clip0_230_1107)">
<path d="M0 5.25H6.89139C8.20404 5.25 9.18853 5.58156 9.91778 6.13416C10.7199 6.79729 11.1575 7.75513 11.1575 8.93402C11.1575 10.2971 10.6106 11.1444 9.51669 11.6602V11.7339C10.9752 12.2128 11.8138 13.539 11.8138 15.1232C11.8138 16.6336 11.2304 17.8125 10.2824 18.5493C9.48023 19.1387 8.45928 19.3966 7.07371 19.3966H0V5.25ZM6.19861 10.776C6.92786 10.776 7.47479 10.3708 7.47479 9.52346C7.47479 8.71298 6.92786 8.30773 6.16215 8.30773H3.79209V10.7392H6.19861V10.776ZM6.52677 16.2652C7.3654 16.2652 7.98527 15.7494 7.98527 14.8284C7.98527 13.8338 7.32894 13.3917 6.52677 13.3917H3.82855V16.302H6.52677V16.2652Z" fill="#9CA2AE"/>
<path d="M12.4336 5.25H16.0434V19.4335H12.4336V5.25Z" fill="#9CA2AE"/>
<path d="M16.7725 14.3863C16.7725 11.1812 18.8144 9.04443 21.9866 9.04443C25.1588 9.04443 27.1642 11.218 27.1642 14.3863C27.1642 17.5913 25.1588 19.7281 21.9866 19.7281C18.8144 19.7281 16.7725 17.5913 16.7725 14.3863ZM23.5545 14.3863C23.5545 12.6179 23.0075 11.5127 21.9137 11.5127C20.8198 11.5127 20.3093 12.6179 20.3093 14.3863C20.3093 16.1546 20.8198 17.2966 21.9137 17.2966C23.0075 17.2598 23.5545 16.1546 23.5545 14.3863Z" fill="#9CA2AE"/>
<path d="M27.5654 14.3863C27.5654 11.1812 29.6073 9.04443 32.7795 9.04443C35.9518 9.04443 37.9207 11.1812 37.9207 14.3863C37.9207 17.5913 35.9153 19.7281 32.7431 19.7281C29.6073 19.7281 27.5654 17.5913 27.5654 14.3863ZM34.3474 14.3863C34.3474 12.6179 33.8005 11.5127 32.7066 11.5127C31.6128 11.5127 31.1023 12.6179 31.1023 14.3863C31.1023 16.1546 31.6128 17.2966 32.7066 17.2966C33.8005 17.2598 34.3474 16.1546 34.3474 14.3863Z" fill="#9CA2AE"/>
<path d="M38.6504 9.30241H42.0049V10.8129H42.0779C42.7342 9.63397 43.6457 9.00769 45.1042 9.00769C46.3804 9.00769 47.3285 9.63397 47.8025 10.7392H47.8754C48.6776 9.41293 49.735 9.00769 50.9747 9.00769C53.3083 9.00769 54.2928 10.7392 54.2928 13.0601V19.3966H50.7924V13.6864C50.7924 12.6549 50.4642 11.9917 49.5891 11.9917C48.714 11.9917 48.2765 12.8022 48.2765 13.9074V19.3966H44.7761V13.6864C44.7761 12.6549 44.4479 11.9917 43.5728 11.9917C42.6977 11.9917 42.2602 12.8022 42.2602 13.9074V19.3966H38.6504V9.30241Z" fill="#9CA2AE"/>
<path d="M58.7045 18.0704H58.668V19.3966H55.3135V5.25H58.8138V10.3339H58.8868C59.5431 9.44978 60.4546 8.97086 61.7308 8.97086C64.2467 8.97086 65.7052 11.255 65.7052 14.3127C65.7052 17.7388 64.1373 19.7282 61.5121 19.7282C60.4182 19.7282 59.2879 19.2124 58.7045 18.0704ZM62.0955 14.2758C62.0955 12.6549 61.5121 11.5865 60.4546 11.5865C59.3608 11.5865 58.7045 12.6549 58.7045 14.2758C58.7045 15.8968 59.3972 16.9652 60.4546 16.9652C61.5121 16.9652 62.0955 15.9337 62.0955 14.2758Z" fill="#9CA2AE"/>
<path d="M66.1064 14.3496C66.1064 11.1813 68.1848 9.00774 71.1747 9.00774C72.6697 9.00774 73.8 9.48666 74.6751 10.334C75.8419 11.476 76.3523 13.2444 76.3159 15.3074H69.6068C69.7527 16.56 70.3361 17.2231 71.3935 17.2231C72.0133 17.2231 72.5603 16.9284 72.779 16.2653H76.17C75.5866 18.5862 73.8 19.7282 71.2841 19.7282C68.1848 19.6914 66.1064 17.5547 66.1064 14.3496ZM69.6068 13.2812H72.8155C72.7426 12.0655 72.0863 11.4392 71.2476 11.4392C70.2631 11.4024 69.7162 12.1023 69.6068 13.2812Z" fill="#9CA2AE"/>
<path d="M80.2901 11.0337H80.363C81.0922 9.63378 82.0403 9.08118 83.2435 9.08118C83.5352 9.08118 83.7175 9.11802 83.8269 9.1917V12.2863H83.754C81.6757 11.9179 80.4724 12.9126 80.4724 15.1966V19.4333H76.9355V9.30222H80.2901V11.0337Z" fill="#9CA2AE"/>
<path d="M84.1921 19.4336H87.5831C87.7289 19.8757 88.1665 20.2809 89.0051 20.2809C90.1354 20.2809 90.5365 19.5809 90.5365 18.5126V17.7758H90.4636C89.9166 18.4389 89.1509 18.9178 88.0571 18.9178C85.9058 18.9178 84.0098 17.2968 84.0098 14.1286C84.0098 11.2182 85.5412 8.97095 87.8748 8.97095C89.2239 8.97095 90.026 9.52355 90.573 10.3709H90.6459V9.26567H94.0004V18.0336C94.0004 19.6546 93.4535 20.9072 92.6148 21.644C91.7397 22.4176 90.5 22.7492 89.078 22.7492C86.3798 22.786 84.5202 21.6808 84.1921 19.4336ZM90.6823 13.9812C90.6823 12.7287 90.0989 11.6971 89.078 11.6971C88.0935 11.6971 87.4737 12.5813 87.4737 13.9812C87.4737 15.3443 88.0935 16.3022 89.078 16.3022C90.0625 16.3022 90.6823 15.3075 90.6823 13.9812Z" fill="#9CA2AE"/>
</g>
<defs>
<clipPath id="clip0_230_1107">
<rect width="94" height="28" fill="white"/>
</clipPath>
</defs>
</svg>
