<svg width="160" height="30" viewBox="0 0 160 30" fill="none" xmlns="http://www.w3.org/2000/svg">
<path d="M0 0H11.73C13.9643 0 15.64 0.568391 16.8813 1.51571C18.2467 2.65249 18.9915 4.29451 18.9915 6.31546C18.9915 8.65217 18.0605 10.1047 16.1986 10.9889V11.1152C18.6812 11.9362 20.1086 14.2098 20.1086 16.9254C20.1086 19.5148 19.1156 21.5357 17.502 22.7988C16.1366 23.8093 14.3988 24.2514 12.0403 24.2514H0V0ZM10.5508 9.47318C11.7921 9.47318 12.7231 8.77848 12.7231 7.32593C12.7231 5.93653 11.7921 5.24183 10.4888 5.24183H6.45462V9.41003H10.5508V9.47318ZM11.1094 18.8832C12.5369 18.8832 13.5919 17.999 13.5919 16.4202C13.5919 14.715 12.4748 13.9572 11.1094 13.9572H6.51669V18.9464H11.1094V18.8832Z" fill="#9CA2AE"/>
<path d="M21.1631 0H27.3074V24.3145H21.1631V0Z" fill="#9CA2AE"/>
<path d="M28.5488 15.6622C28.5488 10.1677 32.0244 6.50475 37.4239 6.50475C42.8235 6.50475 46.237 10.2309 46.237 15.6622C46.237 21.1566 42.8235 24.8196 37.4239 24.8196C32.0244 24.8196 28.5488 21.1566 28.5488 15.6622ZM40.0927 15.6622C40.0927 12.6307 39.1617 10.7361 37.2998 10.7361C35.4379 10.7361 34.569 12.6307 34.569 15.6622C34.569 18.6936 35.4379 20.6514 37.2998 20.6514C39.1617 20.5882 40.0927 18.6936 40.0927 15.6622Z" fill="#9CA2AE"/>
<path d="M46.9199 15.6622C46.9199 10.1677 50.3955 6.50475 55.795 6.50475C61.1946 6.50475 64.546 10.1677 64.546 15.6622C64.546 21.1566 61.1325 24.8196 55.733 24.8196C50.3955 24.8196 46.9199 21.1566 46.9199 15.6622ZM58.4638 15.6622C58.4638 12.6307 57.5328 10.7361 55.6709 10.7361C53.809 10.7361 52.9401 12.6307 52.9401 15.6622C52.9401 18.6936 53.809 20.6514 55.6709 20.6514C57.5328 20.5882 58.4638 18.6936 58.4638 15.6622Z" fill="#9CA2AE"/>
<path d="M65.7881 6.94699H71.498V9.53633H71.6221C72.7392 7.51538 74.2908 6.44176 76.7734 6.44176C78.9456 6.44176 80.5593 7.51538 81.3661 9.41002H81.4902C82.8556 7.13646 84.6555 6.44176 86.7656 6.44176C90.7377 6.44176 92.4134 9.41002 92.4134 13.3888V24.2513H86.4553V14.4624C86.4553 12.6941 85.8968 11.5573 84.4072 11.5573C82.9177 11.5573 82.1729 12.9467 82.1729 14.8413V24.2513H76.2148V14.4624C76.2148 12.6941 75.6562 11.5573 74.1667 11.5573C72.6772 11.5573 71.9324 12.9467 71.9324 14.8413V24.2513H65.7881V6.94699Z" fill="#9CA2AE"/>
<path d="M99.9223 21.9778H99.8602V24.2514H94.1504V0H100.108V8.71534H100.233C101.35 7.19963 102.901 6.37862 105.074 6.37862C109.356 6.37862 111.838 10.2942 111.838 15.536C111.838 21.4094 109.17 24.8198 104.701 24.8198C102.839 24.8198 100.915 23.9356 99.9223 21.9778ZM105.694 15.4729C105.694 12.6941 104.701 10.8626 102.901 10.8626C101.039 10.8626 99.9223 12.6941 99.9223 15.4729C99.9223 18.2517 101.101 20.0832 102.901 20.0832C104.701 20.0832 105.694 18.3148 105.694 15.4729Z" fill="#9CA2AE"/>
<path d="M112.521 15.5993C112.521 10.168 116.059 6.44183 121.148 6.44183C123.693 6.44183 125.617 7.26284 127.106 8.7154C129.092 10.6732 129.961 13.7046 129.899 17.2413H118.48C118.728 19.3885 119.721 20.5253 121.521 20.5253C122.576 20.5253 123.507 20.0201 123.879 18.8833H129.651C128.658 22.862 125.617 24.8198 121.335 24.8198C116.059 24.7567 112.521 21.0937 112.521 15.5993ZM118.48 13.7678H123.941C123.817 11.6837 122.7 10.61 121.272 10.61C119.597 10.5469 118.666 11.7468 118.48 13.7678Z" fill="#9CA2AE"/>
<path d="M136.664 9.91493H136.788C138.029 7.51505 139.643 6.56773 141.691 6.56773C142.188 6.56773 142.498 6.63089 142.684 6.7572V12.0622H142.56C139.022 11.4306 136.974 13.1358 136.974 17.0514V24.3142H130.954V6.94666H136.664V9.91493Z" fill="#9CA2AE"/>
<path d="M143.305 24.3147H149.077C149.326 25.0726 150.07 25.7673 151.498 25.7673C153.422 25.7673 154.104 24.5673 154.104 22.7358V21.4727H153.98C153.049 22.6095 151.746 23.4305 149.884 23.4305C146.222 23.4305 142.995 20.6517 142.995 15.2204C142.995 10.2312 145.602 6.37877 149.574 6.37877C151.87 6.37877 153.236 7.32609 154.167 8.77865H154.291V6.88401H160V21.9148C160 24.6936 159.07 26.8409 157.642 28.104C156.153 29.4302 154.042 29.9986 151.622 29.9986C147.029 30.0618 143.864 28.1671 143.305 24.3147ZM154.353 14.9678C154.353 12.8205 153.36 11.0522 151.622 11.0522C149.946 11.0522 148.891 12.5679 148.891 14.9678C148.891 17.3045 149.946 18.9466 151.622 18.9466C153.298 18.9466 154.353 17.2414 154.353 14.9678Z" fill="#9CA2AE"/>
</svg>
