<svg width="76" height="28" viewBox="0 0 76 28" fill="none" xmlns="http://www.w3.org/2000/svg">
<g clip-path="url(#clip0_230_1118)">
<path fill-rule="evenodd" clip-rule="evenodd" d="M27.2441 8.42593V16.8519H29.3051H31.3661V13.6111C31.3661 11.4722 31.3661 10.3056 31.3661 10.1759C31.4305 9.85185 31.4949 9.52778 31.6881 9.26852C31.9458 8.81481 32.3966 8.62037 32.9119 8.68518C33.6203 8.75 34.0712 9.13889 34.2 9.98148C34.2 10.1111 34.2 11.4074 34.2 13.4815V16.787H36.261H38.322V12.8981C38.322 9.59259 38.322 8.94444 38.2576 8.62037C38.1288 7.4537 37.7424 6.5463 37.0339 5.89815C36.4542 5.31481 35.7458 4.99074 34.9085 4.86111C34.5864 4.7963 33.6847 4.86111 33.4271 4.92593C32.6542 5.12037 32.0746 5.37963 31.5593 5.96296L31.2373 6.22222V3.11111V0H29.1763H27.1153V8.42593H27.2441ZM71.0407 0.12963C70.9119 0.388889 66.7254 10.5648 66.7254 10.5648C66.7254 10.5648 67.8203 10.5648 69.1729 10.5648H71.6203L73.8102 5.31481C75.0339 2.39815 76 0 76 0C76 0 74.9051 0 73.5525 0H71.1051L71.0407 0.12963ZM18.2271 4.92593C17.3254 5.05556 16.617 5.31481 15.9085 5.76852C14.4915 6.67593 13.5898 8.23148 13.3322 10.0463C13.2034 10.8889 13.2678 11.9259 13.461 12.7037C13.9763 14.713 15.3288 16.2685 17.0678 16.8519C17.7119 17.0463 17.9695 17.1111 18.7424 17.1111C19.322 17.1111 19.5153 17.1111 19.7085 17.0463C20.5458 16.8519 21.1254 16.5278 21.6407 16.0093L21.8983 15.75V16.2685V16.8519H23.8949H25.8915V11.0185V5.18518H23.8949H21.8983V5.7037V6.22222L21.7051 6.02778C21.2542 5.57407 20.6102 5.18518 19.7729 4.99074C19.5153 4.92593 19.3864 4.92593 18.8712 4.92593C18.5492 4.92593 18.2271 4.92593 18.2271 4.92593ZM44.5051 4.92593C43.4102 5.05556 42.2509 5.57407 41.4136 6.22222C39.8034 7.58333 38.9661 9.72222 39.2881 11.9259C39.6102 14.3889 41.3492 16.2685 43.7966 16.9167C44.3119 17.0463 44.8271 17.1111 45.4712 17.1111C46.6305 17.1111 47.4678 16.9167 48.3695 16.463C50.1729 15.5556 51.3322 13.9352 51.5898 11.9259C51.6542 11.4074 51.6542 10.5648 51.5898 10.1111C51.461 9.13889 51.0746 8.16667 50.4949 7.38889C50.2373 7.06481 49.722 6.48148 49.4 6.22222C48.4983 5.50926 47.4678 5.05556 46.3085 4.92593C45.8576 4.86111 44.9559 4.86111 44.5051 4.92593ZM57.6441 4.92593C56.5492 5.05556 55.4542 5.50926 54.617 6.22222C54.2949 6.48148 53.7153 7.06481 53.522 7.38889C52.9424 8.16667 52.6203 9.13889 52.4271 10.1111C52.3627 10.5648 52.3627 11.4722 52.4271 11.9259C52.8136 14.5185 54.6814 16.5278 57.2576 17.0463C57.7729 17.1759 58.0305 17.1759 58.6102 17.1759C59.7051 17.1759 60.6712 16.9815 61.5729 16.463C63.9559 15.2315 65.2441 12.5093 64.6644 9.72222C64.1492 7.12963 62.0881 5.25 59.4475 4.92593C58.9966 4.86111 58.0949 4.86111 57.6441 4.92593ZM0 5.18518C0 5.18518 1.09492 7.84259 2.44746 11.0833C3.8 14.3241 4.89492 16.9815 4.89492 16.9815C4.89492 16.9815 4.50847 17.9537 3.99322 19.1204C3.47797 20.287 3.09153 21.1944 3.09153 21.2593C3.09153 21.3241 4.05763 21.2593 5.28136 21.2593H7.47119L10.7559 13.287C12.5593 8.87963 14.0407 5.31482 14.0407 5.25C14.0407 5.25 13.5898 5.18518 11.8508 5.25H9.66102L8.30847 8.62037C7.72881 10.4352 7.08475 11.9907 7.08475 11.9907C7.08475 11.9907 6.50508 10.4352 5.7322 8.62037L4.44407 5.18518H2.25424C1.03051 5.18518 0 5.18518 0 5.18518ZM20.2237 8.75C21.061 8.94444 21.7051 9.59259 21.9627 10.4352C22.0271 10.7593 22.0271 11.3426 21.9627 11.6667C21.7695 12.5093 21.1254 13.1574 20.2881 13.3519C19.9661 13.4167 19.3864 13.4167 19.0644 13.3519C18.3559 13.1574 17.7119 12.6389 17.4542 11.9907C17.1322 11.2778 17.261 10.3704 17.6475 9.72222C18.2271 8.81481 19.1932 8.49074 20.2237 8.75ZM45.8576 8.75C46.7593 8.87963 47.4678 9.59259 47.661 10.5C47.7254 10.8241 47.7254 11.3426 47.661 11.6667C47.4678 12.5093 46.8237 13.0926 46.0508 13.3519C45.7932 13.4167 45.0847 13.4167 44.8271 13.3519C44.183 13.1574 43.6678 12.7037 43.3458 12.1204C43.217 11.7315 43.1525 11.4722 43.1525 11.0185C43.1525 10.6296 43.217 10.4352 43.3458 10.1111C43.539 9.72222 43.7966 9.33333 44.1831 9.07407C44.6339 8.75 45.278 8.62037 45.8576 8.75ZM58.9966 8.75C59.7695 8.87963 60.4136 9.39815 60.6712 10.1111C60.8 10.4352 60.8644 10.6296 60.8644 11.0185C60.8644 11.4722 60.8 11.6667 60.6712 12.0556C60.4136 12.6389 59.8339 13.0926 59.1898 13.287C58.9322 13.3519 58.2237 13.3519 57.9661 13.287C57.1932 13.0926 56.5492 12.4444 56.3559 11.6019C56.2915 11.2778 56.2915 10.6944 56.3559 10.3704C56.6136 9.33333 57.5153 8.62037 58.5458 8.62037C58.6746 8.68518 58.8678 8.68519 58.9966 8.75ZM67.6915 11.6019C66.4678 11.7315 65.5661 12.6389 65.3085 13.8056C65.2441 14.1296 65.2441 14.713 65.3085 15.037C65.5661 16.0741 66.339 16.787 67.3695 17.0463C67.4983 17.0463 67.7559 17.1111 67.9492 17.1111C68.722 17.1111 69.3661 16.8519 69.8814 16.3333C70.461 15.75 70.6542 15.1667 70.6542 14.3889C70.6542 13.4167 70.2034 12.5741 69.4305 12.1204C68.9797 11.7315 68.2712 11.537 67.6915 11.6019Z" fill="#9CA2AE"/>
<path fill-rule="evenodd" clip-rule="evenodd" d="M32.9763 19.8982C32.5255 19.1852 32.9119 18.213 33.7492 17.9537C33.8071 17.9537 33.865 17.9406 33.9288 17.9262C34.0069 17.9086 34.0937 17.8889 34.2001 17.8889C34.4577 17.8889 34.5221 17.8889 34.7153 18.0185C35.3594 18.3426 35.6814 19.1204 35.3594 19.7685C35.2306 20.0278 34.973 20.2871 34.7153 20.4167C34.5221 20.4815 34.4577 20.4815 34.1357 20.4815C33.7492 20.4815 33.7492 20.4815 33.556 20.4167C33.3628 20.3519 33.1052 20.0926 32.9763 19.8982ZM28.2102 20.0926C28.5323 18.926 29.2408 18.213 30.3357 18.0185C30.3959 18.0185 30.4561 18.0122 30.5203 18.0055C30.6619 17.9907 30.8225 17.9739 31.0441 18.0185C31.495 18.0185 31.817 18.0185 32.0746 18.1482L32.3323 18.213V19.25V20.2871C32.3323 20.2871 32.2679 20.2871 32.1391 20.2222C31.8814 20.0926 31.495 20.0926 31.2374 20.1574C30.8509 20.2222 30.6577 20.5463 30.5933 21V21.1945H31.4306H32.2679V22.1667V23.1389H31.4306H30.5933V25.4722V27.8056H29.3696H28.1458V25.4722V23.1389H27.695H27.2441V22.1667V21.1945H27.695H28.1458V20.7408V20.7408C28.1458 20.4815 28.1458 20.2871 28.2102 20.0926ZM40.1255 21.0648C39.6102 21.1945 39.2238 21.4537 38.9662 21.7778L38.8374 21.9722V21.5834V21.1945H37.6136H36.3899V24.5V27.8056H37.6136H38.8374V25.9908V23.9815C38.9018 23.7222 39.0306 23.463 39.1594 23.3334C39.4814 23.0741 40.0611 23.1389 40.3187 23.463C40.5119 23.7223 40.5119 23.7222 40.5119 25.7963V27.7408H41.7357H42.9594V25.5371V25.5369C42.9594 23.2037 42.9594 22.9445 42.8306 22.4908C42.7018 22.1019 42.573 21.7778 42.2509 21.5185C41.9933 21.2593 41.7357 21.0648 41.3492 21H41.3492C40.9628 21 40.3831 21 40.1255 21.0648ZM44.956 21.5185C45.278 21.2593 45.8577 21.0648 46.2441 21C46.4374 21 46.8882 21 47.1458 20.9352C47.6611 21 48.1119 21.2593 48.434 21.5834L48.5628 21.7778V21.4537V21.1297H49.7865H51.0102V24.4352V27.7408H49.7865H48.5628V27.4167V27.0926L48.3052 27.3519C47.9831 27.6111 47.7255 27.7408 47.3391 27.8704C47.017 28 46.373 28 45.9865 27.9352C45.278 27.8056 44.6984 27.4167 44.2475 26.8334C43.9255 26.4445 43.7323 25.8611 43.6035 25.2778C43.5391 24.8889 43.5391 24.176 43.6035 23.7871C43.7967 22.8148 44.2475 22.0371 44.956 21.5185ZM55.5831 21.0648C55.1323 21.1297 54.6814 21.4537 54.4238 21.7778L54.295 21.9074V21.5185V21.1297H53.0713H51.8475V24.4352V27.7408H53.0713H54.295V25.8611C54.295 23.8519 54.295 23.8519 54.4238 23.5278C54.5526 23.2685 54.8102 23.1389 55.0679 23.1389C55.3255 23.1389 55.4543 23.2037 55.6475 23.3334L55.669 23.3549C55.9052 23.5908 55.9052 23.5908 55.9052 25.7315V27.676H57.1289H58.3526V25.2778V25.2774C58.3526 22.8797 58.3526 22.8796 58.2882 22.6204C58.2453 22.534 58.2023 22.3899 58.1594 22.2459C58.1379 22.1739 58.1165 22.1019 58.095 22.0371C57.9662 21.7778 57.9018 21.713 57.7085 21.5185C57.4509 21.2593 57.2577 21.1297 57.0001 21H57.0001C56.5492 21 56.034 21 55.5831 21.0648ZM59.5119 22.6852C60.0272 21.7778 60.8645 21.2593 61.9594 21.0648C62.6035 20.9352 63.3763 21.0648 64.0848 21.2593L64.278 21.3241V22.426V23.5278C63.634 23.2037 63.4408 23.2037 62.9899 23.2037C62.3458 23.2685 61.895 23.5278 61.7018 24.0463C61.6374 24.2408 61.6374 24.3056 61.6374 24.5648C61.6374 24.8889 61.6374 24.8889 61.7018 25.0834C61.8306 25.3426 62.0238 25.5371 62.2814 25.6667C62.5391 25.7963 62.7323 25.7963 63.1187 25.7963C63.5052 25.7963 63.6984 25.7315 64.0204 25.5371L64.2136 25.4074V26.5093V27.6111L63.956 27.7408C63.5052 27.9352 63.2475 28 62.6035 28C62.1526 28 61.9594 28 61.7662 27.9352C60.5424 27.676 59.6408 26.8334 59.2543 25.7315C59.0611 25.2778 59.0611 25.0834 59.0611 24.5C59.0611 23.9815 59.0611 23.9167 59.1255 23.5926L59.1256 23.5925C59.2544 23.2685 59.3831 22.9444 59.5119 22.6852ZM67.4984 21.0648C65.6306 21.3889 64.4713 23.0093 64.6001 24.8889C64.6645 25.5371 64.8577 26.1204 65.1797 26.5741C65.6306 27.2871 66.3391 27.7408 67.2408 27.9352C67.6272 28 68.6577 28 69.1086 27.9352C69.7526 27.8056 70.3323 27.4815 70.7831 27.0278C70.9764 26.8334 71.2984 26.3797 71.2984 26.3797C71.2984 26.3797 70.8475 26.1852 70.2679 25.9908L69.2374 25.6019L69.1086 25.7315C68.9153 25.926 68.7865 25.9908 68.5289 26.0556C67.8204 26.25 67.1119 25.8611 66.9831 25.213V25.0834H69.2374H71.4916V24.5C71.4916 24.1111 71.4916 23.8519 71.4272 23.7222C71.2984 22.9445 70.9763 22.426 70.5255 21.9074C70.0747 21.4537 69.5594 21.1945 68.8509 21.0648C68.5289 21 67.756 21 67.4984 21.0648ZM32.9763 27.8056V24.5V21.1945H34.2001H35.4238V24.5V27.8056H34.2001H32.9763ZM68.9155 23.1389C68.8731 23.1105 68.8369 23.0852 68.8042 23.0623C68.6878 22.9809 68.6155 22.9303 68.4646 22.8797C67.8205 22.7501 67.1765 23.0093 67.0477 23.463C67.0412 23.476 67.0349 23.4883 67.029 23.5C66.9959 23.5648 66.9725 23.6107 66.9847 23.6432C67.0144 23.7223 67.2545 23.7223 68.0781 23.7223H68.0782H69.1731V23.5926C69.1731 23.3982 69.0443 23.2686 68.9155 23.1389ZM47.5969 23.2685C47.9189 23.3334 48.3054 23.6574 48.4342 23.9815C48.7562 24.6945 48.4342 25.5371 47.6613 25.7963C47.4037 25.8611 47.0172 25.8611 46.7596 25.7963C46.3732 25.6667 45.9867 25.3426 45.9223 24.9537C45.8579 24.7593 45.8579 24.6945 45.8579 24.5C45.8579 24.2408 45.8579 24.1759 45.9867 23.9815C46.3088 23.3333 46.9528 23.0741 47.5969 23.2685Z" fill="#9CA2AE"/>
</g>
<defs>
<clipPath id="clip0_230_1118">
<rect width="76" height="28" fill="white"/>
</clipPath>
</defs>
</svg>
