<svg width="132" height="48" viewBox="0 0 132 48" fill="none" xmlns="http://www.w3.org/2000/svg">
<g clip-path="url(#clip0_630_9277)">
<path fill-rule="evenodd" clip-rule="evenodd" d="M47.3186 14.4444V28.8889H50.8983H54.478V23.3333C54.478 19.6667 54.478 17.6667 54.478 17.4444C54.5898 16.8889 54.7017 16.3333 55.0373 15.8889C55.4847 15.1111 56.2678 14.7778 57.1627 14.8889C58.3932 15 59.1763 15.6667 59.4 17.1111C59.4 17.3333 59.4 19.5556 59.4 23.1111V28.7778H62.9797H66.5593V22.1111C66.5593 16.4444 66.5593 15.3333 66.4475 14.7778C66.2237 12.7778 65.5526 11.2222 64.322 10.1111C63.3153 9.11111 62.0848 8.55555 60.6305 8.33333C60.0712 8.22222 58.5051 8.33333 58.0576 8.44444C56.7153 8.77778 55.7085 9.22222 54.8136 10.2222L54.2542 10.6667V5.33333V0H50.6746H47.0949V14.4444H47.3186ZM123.386 0.222222C123.163 0.666667 115.892 18.1111 115.892 18.1111C115.892 18.1111 117.793 18.1111 120.142 18.1111H124.393L128.197 9.11111C130.322 4.11111 132 0 132 0C132 0 130.098 0 127.749 0H123.498L123.386 0.222222ZM31.6576 8.44444C30.0915 8.66667 28.861 9.11111 27.6305 9.88889C25.1695 11.4444 23.6034 14.1111 23.1559 17.2222C22.9322 18.6667 23.0441 20.4444 23.3797 21.7778C24.2746 25.2222 26.6237 27.8889 29.6441 28.8889C30.7627 29.2222 31.2102 29.3333 32.5525 29.3333C33.5593 29.3333 33.8949 29.3333 34.2305 29.2222C35.6847 28.8889 36.6915 28.3333 37.5864 27.4444L38.0339 27V27.8889V28.8889H41.5017H44.9695V18.8889V8.88889H41.5017H38.0339V9.77778V10.6667L37.6983 10.3333C36.9153 9.55555 35.7966 8.88889 34.3424 8.55555C33.8949 8.44444 33.6712 8.44444 32.7763 8.44444C32.217 8.44444 31.6576 8.44444 31.6576 8.44444ZM77.2983 8.44444C75.3966 8.66667 73.3831 9.55556 71.9288 10.6667C69.1322 13 67.678 16.6667 68.2373 20.4444C68.7966 24.6667 71.817 27.8889 76.0678 29C76.9627 29.2222 77.8576 29.3333 78.9763 29.3333C80.9898 29.3333 82.4441 29 84.0102 28.2222C87.1424 26.6667 89.1559 23.8889 89.6034 20.4444C89.7153 19.5556 89.7153 18.1111 89.6034 17.3333C89.3797 15.6667 88.7085 14 87.7017 12.6667C87.2542 12.1111 86.3593 11.1111 85.8 10.6667C84.2339 9.44444 82.4441 8.66667 80.4305 8.44444C79.6475 8.33333 78.0814 8.33333 77.2983 8.44444ZM100.119 8.44444C98.217 8.66667 96.3153 9.44444 94.861 10.6667C94.3017 11.1111 93.2949 12.1111 92.9593 12.6667C91.9525 14 91.3932 15.6667 91.0576 17.3333C90.9458 18.1111 90.9458 19.6667 91.0576 20.4444C91.7288 24.8889 94.9729 28.3333 99.4475 29.2222C100.342 29.4444 100.79 29.4444 101.797 29.4444C103.698 29.4444 105.376 29.1111 106.942 28.2222C111.081 26.1111 113.319 21.4444 112.312 16.6667C111.417 12.2222 107.837 9 103.251 8.44444C102.468 8.33333 100.902 8.33333 100.119 8.44444ZM0 8.88889C0 8.88889 1.9017 13.4444 4.25085 19C6.6 24.5556 8.5017 29.1111 8.5017 29.1111C8.5017 29.1111 7.83051 30.7778 6.93559 32.7778C6.04068 34.7778 5.36949 36.3333 5.36949 36.4444C5.36949 36.5556 7.04746 36.4444 9.17288 36.4444H12.9763L18.6814 22.7778C21.8136 15.2222 24.3864 9.11111 24.3864 9C24.3864 9 23.6034 8.88889 20.5831 9H16.7797L14.4305 14.7778C13.4237 17.8889 12.3051 20.5556 12.3051 20.5556C12.3051 20.5556 11.2983 17.8889 9.95593 14.7778L7.71864 8.88889H3.91525C1.78983 8.88889 0 8.88889 0 8.88889ZM35.1254 15C36.5797 15.3333 37.6983 16.4444 38.1458 17.8889C38.2576 18.4444 38.2576 19.4444 38.1458 20C37.8102 21.4444 36.6915 22.5556 35.2373 22.8889C34.678 23 33.6712 23 33.1119 22.8889C31.8814 22.5556 30.7627 21.6667 30.3153 20.5556C29.7559 19.3333 29.9797 17.7778 30.6509 16.6667C31.6576 15.1111 33.3356 14.5556 35.1254 15ZM79.6475 15C81.2136 15.2222 82.4441 16.4444 82.7797 18C82.8915 18.5556 82.8915 19.4444 82.7797 20C82.4441 21.4444 81.3254 22.4444 79.9831 22.8889C79.5356 23 78.3051 23 77.8576 22.8889C76.739 22.5556 75.8441 21.7778 75.2848 20.7778C75.061 20.1111 74.9492 19.6667 74.9492 18.8889C74.9492 18.2222 75.061 17.8889 75.2848 17.3333C75.6204 16.6667 76.0678 16 76.739 15.5556C77.522 15 78.6407 14.7778 79.6475 15ZM102.468 15C103.81 15.2222 104.929 16.1111 105.376 17.3333C105.6 17.8889 105.712 18.2222 105.712 18.8889C105.712 19.6667 105.6 20 105.376 20.6667C104.929 21.6667 103.922 22.4444 102.803 22.7778C102.356 22.8889 101.125 22.8889 100.678 22.7778C99.3356 22.4444 98.217 21.3333 97.8814 19.8889C97.7695 19.3333 97.7695 18.3333 97.8814 17.7778C98.3288 16 99.8949 14.7778 101.685 14.7778C101.908 14.8889 102.244 14.8889 102.468 15ZM117.569 19.8889C115.444 20.1111 113.878 21.6667 113.431 23.6667C113.319 24.2222 113.319 25.2222 113.431 25.7778C113.878 27.5556 115.22 28.7778 117.01 29.2222C117.234 29.2222 117.681 29.3333 118.017 29.3333C119.359 29.3333 120.478 28.8889 121.373 28C122.38 27 122.715 26 122.715 24.6667C122.715 23 121.932 21.5556 120.59 20.7778C119.807 20.1111 118.576 19.7778 117.569 19.8889Z" fill="#9CA2AE"/>
<path fill-rule="evenodd" clip-rule="evenodd" d="M57.2753 34.1112C56.4922 32.8889 57.1634 31.2223 58.6176 30.7778C58.7182 30.7778 58.8188 30.7554 58.9295 30.7307C59.0651 30.7004 59.2159 30.6667 59.4007 30.6667C59.8482 30.6667 59.96 30.6667 60.2956 30.8889C61.4143 31.4445 61.9736 32.7778 61.4143 33.8889C61.1905 34.3334 60.7431 34.7778 60.2956 35.0001C59.96 35.1112 59.8481 35.1112 59.2888 35.1112C58.6176 35.1112 58.6176 35.1112 58.282 35.0001C57.9465 34.8889 57.499 34.4445 57.2753 34.1112ZM48.9973 34.4445C49.5566 32.4445 50.7871 31.2223 52.6888 30.8889C52.7934 30.8889 52.8981 30.8781 53.0095 30.8666C53.2554 30.8413 53.5344 30.8125 53.9193 30.8889C54.7024 30.8889 55.2617 30.8889 55.7092 31.1112L56.1566 31.2223V33.0001V34.7778C56.1566 34.7778 56.0448 34.7778 55.821 34.6667C55.3736 34.4445 54.7024 34.4445 54.2549 34.5556C53.5837 34.6667 53.2482 35.2223 53.1363 36.0001V36.3334H54.5905H56.0448V38.0001V39.6667H54.5905H53.1363V43.6667V47.6667H51.0109H48.8854V43.6667V39.6667H48.1024H47.3193V38.0001V36.3334H48.1024H48.8854V35.5556V35.5556C48.8854 35.1112 48.8854 34.7778 48.9973 34.4445ZM69.6922 36.1112C68.7973 36.3334 68.1261 36.7778 67.6787 37.3334L67.4549 37.6667V37.0001V36.3334H65.3295H63.2041V42.0001V47.6667H65.3295H67.4549V44.5556V41.1112C67.5668 40.6667 67.7905 40.2223 68.0143 40.0001C68.5736 39.5556 69.5804 39.6667 70.0278 40.2223C70.3634 40.6667 70.3634 40.6667 70.3634 44.2223V47.5556H72.4888H74.6142V43.7778V43.7776C74.6142 39.7778 74.6142 39.3334 74.3905 38.5556C74.1668 37.8889 73.9431 37.3334 73.3837 36.8889C72.9363 36.4445 72.4888 36.1112 71.8176 36.0001H71.8176C71.1464 36.0001 70.1397 36.0001 69.6922 36.1112ZM78.0821 36.8889C78.6414 36.4445 79.6482 36.1112 80.3193 36.0001C80.6549 36.0001 81.438 36.0001 81.8854 35.8889C82.7804 36.0001 83.5634 36.4445 84.1227 37.0001L84.3465 37.3334V36.7778V36.2223H86.4719H88.5973V41.8889V47.5556H86.4719H84.3465V47.0001V46.4445L83.899 46.8889C83.3397 47.3334 82.8922 47.5556 82.221 47.7778C81.6617 48.0001 80.5431 48.0001 79.8719 47.8889C78.6414 47.6667 77.6346 47.0001 76.8515 46.0001C76.2922 45.3334 75.9566 44.3334 75.7329 43.3334C75.621 42.6667 75.621 41.4445 75.7329 40.7778C76.0685 39.1112 76.8515 37.7778 78.0821 36.8889ZM96.5397 36.1112C95.7566 36.2223 94.9736 36.7778 94.5261 37.3334L94.3024 37.5556V36.8889V36.2223H92.177H90.0515V41.8889V47.5556H92.177H94.3024V44.3334C94.3024 40.8889 94.3024 40.8889 94.5261 40.3334C94.7499 39.8889 95.1973 39.6667 95.6448 39.6667C96.0922 39.6667 96.316 39.7778 96.6515 40.0001L96.6888 40.0369C97.099 40.4413 97.099 40.4413 97.099 44.1112V47.4445H99.2244H101.35V43.3334V43.3325C101.35 39.2223 101.35 39.2222 101.238 38.7778C101.163 38.6297 101.089 38.3828 101.014 38.1359C100.977 38.0124 100.94 37.8889 100.902 37.7778C100.679 37.3334 100.567 37.2223 100.231 36.8889C99.7837 36.4445 99.4482 36.2223 99.0007 36.0001H99.0007C98.2176 36.0001 97.3227 36.0001 96.5397 36.1112ZM103.363 38.8889C104.258 37.3334 105.713 36.4445 107.614 36.1112C108.733 35.8889 110.075 36.1112 111.306 36.4445L111.641 36.5556V38.4445V40.3334C110.523 39.7778 110.187 39.7778 109.404 39.7778C108.285 39.8889 107.502 40.3334 107.167 41.2223C107.055 41.5556 107.055 41.6667 107.055 42.1112C107.055 42.6667 107.055 42.6667 107.167 43L107.167 43.0001C107.391 43.4445 107.726 43.7778 108.174 44.0001C108.621 44.2223 108.957 44.2223 109.628 44.2223C110.299 44.2223 110.635 44.1112 111.194 43.7778L111.53 43.5556V45.4445V47.3334L111.082 47.5556C110.299 47.8889 109.852 48.0001 108.733 48.0001C107.95 48.0001 107.614 48.0001 107.279 47.8889C105.153 47.4445 103.587 46.0001 102.916 44.1112C102.58 43.3334 102.58 43.0001 102.58 42.0001C102.58 41.1112 102.58 41.0001 102.692 40.4445L102.692 40.4444C102.916 39.8889 103.14 39.3334 103.363 38.8889ZM117.235 36.1112C113.991 36.6667 111.977 39.4445 112.201 42.6667C112.313 43.7778 112.648 44.7778 113.207 45.5556C113.991 46.7778 115.221 47.5556 116.787 47.8889C117.458 48.0001 119.248 48.0001 120.031 47.8889C121.15 47.6667 122.157 47.1112 122.94 46.3334C123.275 46.0001 123.835 45.2223 123.835 45.2223C123.835 45.2223 123.052 44.8889 122.045 44.5556L120.255 43.8889L120.031 44.1112C119.696 44.4445 119.472 44.5556 119.024 44.6667C117.794 45.0001 116.563 44.3334 116.34 43.2223V43.0001H120.255H124.17V42.0001C124.17 41.3334 124.17 40.8889 124.058 40.6667C123.835 39.3334 123.275 38.4445 122.492 37.5556C121.709 36.7778 120.814 36.3334 119.584 36.1112C119.024 36.0001 117.682 36.0001 117.235 36.1112ZM57.2753 47.6667V42.0001V36.3334H59.4007H61.5261V42.0001V47.6667H59.4007H57.2753ZM119.503 39.5356L119.503 39.5355C119.3 39.3958 119.175 39.3091 118.913 39.2223C117.794 39.0001 116.675 39.4446 116.452 40.2223C116.441 40.2445 116.43 40.2657 116.419 40.2857C116.362 40.3964 116.322 40.475 116.342 40.5307C116.393 40.6668 116.809 40.6668 118.242 40.6668H118.242H120.143V40.4445C120.143 40.1112 119.92 39.889 119.696 39.6668C119.622 39.6181 119.56 39.5748 119.503 39.5356ZM82.6689 39.8889C83.2282 40 83.8994 40.5556 84.1231 41.1111C84.6824 42.3334 84.1231 43.7778 82.7807 44.2223C82.3333 44.3334 81.6621 44.3334 81.2146 44.2223C80.5434 44 79.8723 43.4445 79.7604 42.7778C79.6485 42.4445 79.6485 42.3334 79.6485 42C79.6485 41.5556 79.6485 41.4445 79.8723 41.1111C80.4316 40 81.5502 39.5556 82.6689 39.8889Z" fill="#9CA2AE"/>
</g>
<defs>
<clipPath id="clip0_630_9277">
<rect width="132" height="48" fill="white"/>
</clipPath>
</defs>
</svg>
